<?xml version="1.0" encoding="UTF-8" standalone="no"?>
<svg
   xmlns:dc="http://purl.org/dc/elements/1.1/"
   xmlns:cc="http://creativecommons.org/ns#"
   xmlns:rdf="http://www.w3.org/1999/02/22-rdf-syntax-ns#"
   xmlns:svg="http://www.w3.org/2000/svg"
   xmlns="http://www.w3.org/2000/svg"
   viewBox="0 0 360 270"
   height="270"
   width="360"
   xml:space="preserve"
   version="1.1"
   id="svg2"><metadata
     id="metadata8"><rdf:RDF><cc:Work
         rdf:about=""><dc:format>image/svg+xml</dc:format><dc:type
           rdf:resource="http://purl.org/dc/dcmitype/StillImage" /><dc:title></dc:title></cc:Work></rdf:RDF></metadata><defs
     id="defs6" /><g
     transform="matrix(1.25,0,0,-1.25,0,270)"
     id="g10"><g
       id="g12"><g
         transform="matrix(1,0,0,-1,0,216)"
         id="g14"><path
           id="path16"
           style="fill:none;stroke:#000000;stroke-width:0.5;stroke-linecap:butt;stroke-linejoin:miter;stroke-miterlimit:3.79999995;stroke-dasharray:none;stroke-opacity:1"
           d="m 42.949,105.199 3.699,0" /></g><g
         transform="matrix(1,0,0,-1,0,216)"
         id="g18"><path
           id="path20"
           style="fill:none;stroke:#000000;stroke-width:0.5;stroke-linecap:butt;stroke-linejoin:miter;stroke-miterlimit:3.79999995;stroke-dasharray:none;stroke-opacity:1"
           d="m 273.148,105.199 -3.699,0" /></g><text
         id="text22"
         style="font-variant:normal;font-weight:normal;font-size:8px;font-family:'DejaVu Sans';-inkscape-font-specification:DejaVuSans;writing-mode:lr-tb;fill:#000000;fill-opacity:1;fill-rule:nonzero;stroke:none"
         transform="matrix(1,0,0,-1,32.727406,107.80078)"><tspan
           id="tspan24"
           y="0"
           x="0">0</tspan></text>
<g
         transform="matrix(1,0,0,-1,0,216)"
         id="g26"><path
           id="path28"
           style="fill:none;stroke:#000000;stroke-width:0.5;stroke-linecap:butt;stroke-linejoin:miter;stroke-miterlimit:3.79999995;stroke-dasharray:none;stroke-opacity:1"
           d="m 42.949,91.699 3.699,0" /></g><g
         transform="matrix(1,0,0,-1,0,216)"
         id="g30"><path
           id="path32"
           style="fill:none;stroke:#000000;stroke-width:0.5;stroke-linecap:butt;stroke-linejoin:miter;stroke-miterlimit:3.79999995;stroke-dasharray:none;stroke-opacity:1"
           d="m 273.148,91.699 -3.699,0" /></g><text
         id="text34"
         style="font-variant:normal;font-weight:normal;font-size:8px;font-family:'DejaVu Sans';-inkscape-font-specification:DejaVuSans;writing-mode:lr-tb;fill:#000000;fill-opacity:1;fill-rule:nonzero;stroke:none"
         transform="matrix(1,0,0,-1,27.637562,121.30078)"><tspan
           id="tspan36"
           y="0"
           x="0 5.0879998">50</tspan></text>
<g
         transform="matrix(1,0,0,-1,0,216)"
         id="g38"><path
           id="path40"
           style="fill:none;stroke:#000000;stroke-width:0.5;stroke-linecap:butt;stroke-linejoin:miter;stroke-miterlimit:3.79999995;stroke-dasharray:none;stroke-opacity:1"
           d="m 42.949,78.199 3.699,0" /></g><g
         transform="matrix(1,0,0,-1,0,216)"
         id="g42"><path
           id="path44"
           style="fill:none;stroke:#000000;stroke-width:0.5;stroke-linecap:butt;stroke-linejoin:miter;stroke-miterlimit:3.79999995;stroke-dasharray:none;stroke-opacity:1"
           d="m 273.148,78.199 -3.699,0" /></g><text
         id="text46"
         style="font-variant:normal;font-weight:normal;font-size:8px;font-family:'DejaVu Sans';-inkscape-font-specification:DejaVuSans;writing-mode:lr-tb;fill:#000000;fill-opacity:1;fill-rule:nonzero;stroke:none"
         transform="matrix(1,0,0,-1,22.547719,134.80078)"><tspan
           id="tspan48"
           y="0"
           x="0 5.0879998 10.176">100</tspan></text>
<g
         transform="matrix(1,0,0,-1,0,216)"
         id="g50"><path
           id="path52"
           style="fill:none;stroke:#000000;stroke-width:0.5;stroke-linecap:butt;stroke-linejoin:miter;stroke-miterlimit:3.79999995;stroke-dasharray:none;stroke-opacity:1"
           d="m 42.949,64.699 3.699,0" /></g><g
         transform="matrix(1,0,0,-1,0,216)"
         id="g54"><path
           id="path56"
           style="fill:none;stroke:#000000;stroke-width:0.5;stroke-linecap:butt;stroke-linejoin:miter;stroke-miterlimit:3.79999995;stroke-dasharray:none;stroke-opacity:1"
           d="m 273.148,64.699 -3.699,0" /></g><text
         id="text58"
         style="font-variant:normal;font-weight:normal;font-size:8px;font-family:'DejaVu Sans';-inkscape-font-specification:DejaVuSans;writing-mode:lr-tb;fill:#000000;fill-opacity:1;fill-rule:nonzero;stroke:none"
         transform="matrix(1,0,0,-1,22.547719,148.30078)"><tspan
           id="tspan60"
           y="0"
           x="0 5.0879998 10.176">150</tspan></text>
<g
         transform="matrix(1,0,0,-1,0,216)"
         id="g62"><path
           id="path64"
           style="fill:none;stroke:#000000;stroke-width:0.5;stroke-linecap:butt;stroke-linejoin:miter;stroke-miterlimit:3.79999995;stroke-dasharray:none;stroke-opacity:1"
           d="m 42.949,51.25 3.699,0" /></g><g
         transform="matrix(1,0,0,-1,0,216)"
         id="g66"><path
           id="path68"
           style="fill:none;stroke:#000000;stroke-width:0.5;stroke-linecap:butt;stroke-linejoin:miter;stroke-miterlimit:3.79999995;stroke-dasharray:none;stroke-opacity:1"
           d="m 273.148,51.25 -3.699,0" /></g><text
         id="text70"
         style="font-variant:normal;font-weight:normal;font-size:8px;font-family:'DejaVu Sans';-inkscape-font-specification:DejaVuSans;writing-mode:lr-tb;fill:#000000;fill-opacity:1;fill-rule:nonzero;stroke:none"
         transform="matrix(1,0,0,-1,22.547719,161.75)"><tspan
           id="tspan72"
           y="0"
           x="0 5.0879998 10.176">200</tspan></text>
<g
         transform="matrix(1,0,0,-1,0,216)"
         id="g74"><path
           id="path76"
           style="fill:none;stroke:#000000;stroke-width:0.5;stroke-linecap:butt;stroke-linejoin:miter;stroke-miterlimit:3.79999995;stroke-dasharray:none;stroke-opacity:1"
           d="m 42.949,37.75 3.699,0" /></g><g
         transform="matrix(1,0,0,-1,0,216)"
         id="g78"><path
           id="path80"
           style="fill:none;stroke:#000000;stroke-width:0.5;stroke-linecap:butt;stroke-linejoin:miter;stroke-miterlimit:3.79999995;stroke-dasharray:none;stroke-opacity:1"
           d="m 273.148,37.75 -3.699,0" /></g><text
         id="text82"
         style="font-variant:normal;font-weight:normal;font-size:8px;font-family:'DejaVu Sans';-inkscape-font-specification:DejaVuSans;writing-mode:lr-tb;fill:#000000;fill-opacity:1;fill-rule:nonzero;stroke:none"
         transform="matrix(1,0,0,-1,22.547719,175.25)"><tspan
           id="tspan84"
           y="0"
           x="0 5.0879998 10.176">250</tspan></text>
<g
         transform="matrix(1,0,0,-1,0,216)"
         id="g86"><path
           id="path88"
           style="fill:none;stroke:#000000;stroke-width:0.5;stroke-linecap:butt;stroke-linejoin:miter;stroke-miterlimit:3.79999995;stroke-dasharray:none;stroke-opacity:1"
           d="m 42.949,24.25 3.699,0" /></g><g
         transform="matrix(1,0,0,-1,0,216)"
         id="g90"><path
           id="path92"
           style="fill:none;stroke:#000000;stroke-width:0.5;stroke-linecap:butt;stroke-linejoin:miter;stroke-miterlimit:3.79999995;stroke-dasharray:none;stroke-opacity:1"
           d="m 273.148,24.25 -3.699,0" /></g><text
         id="text94"
         style="font-variant:normal;font-weight:normal;font-size:8px;font-family:'DejaVu Sans';-inkscape-font-specification:DejaVuSans;writing-mode:lr-tb;fill:#000000;fill-opacity:1;fill-rule:nonzero;stroke:none"
         transform="matrix(1,0,0,-1,22.547719,188.75)"><tspan
           id="tspan96"
           y="0"
           x="0 5.0879998 10.176">300</tspan></text>
<g
         transform="matrix(1,0,0,-1,0,216)"
         id="g98"><path
           id="path100"
           style="fill:none;stroke:#000000;stroke-width:0.5;stroke-linecap:butt;stroke-linejoin:miter;stroke-miterlimit:3.79999995;stroke-dasharray:none;stroke-opacity:1"
           d="m 42.949,10.75 3.699,0" /></g><g
         transform="matrix(1,0,0,-1,0,216)"
         id="g102"><path
           id="path104"
           style="fill:none;stroke:#000000;stroke-width:0.5;stroke-linecap:butt;stroke-linejoin:miter;stroke-miterlimit:3.79999995;stroke-dasharray:none;stroke-opacity:1"
           d="m 273.148,10.75 -3.699,0" /></g><text
         id="text106"
         style="font-variant:normal;font-weight:normal;font-size:8px;font-family:'DejaVu Sans';-inkscape-font-specification:DejaVuSans;writing-mode:lr-tb;fill:#000000;fill-opacity:1;fill-rule:nonzero;stroke:none"
         transform="matrix(1,0,0,-1,22.547719,202.25)"><tspan
           id="tspan108"
           y="0"
           x="0 5.0879998 10.176">350</tspan></text>
<g
         transform="matrix(1,0,0,-1,0,216)"
         id="g110"><path
           id="path112"
           style="fill:none;stroke:#000000;stroke-width:0.5;stroke-linecap:butt;stroke-linejoin:miter;stroke-miterlimit:3.79999995;stroke-dasharray:none;stroke-opacity:1"
           d="M 46,105.199 46,101.5" /></g><g
         transform="matrix(1,0,0,-1,0,216)"
         id="g114"><path
           id="path116"
           style="fill:none;stroke:#000000;stroke-width:0.5;stroke-linecap:butt;stroke-linejoin:miter;stroke-miterlimit:3.79999995;stroke-dasharray:none;stroke-opacity:1"
           d="m 46,10.75 0,3.699" /></g><text
         id="text118"
         style="font-variant:normal;font-weight:normal;font-size:8px;font-family:'DejaVu Sans';-inkscape-font-specification:DejaVuSans;writing-mode:lr-tb;fill:#000000;fill-opacity:1;fill-rule:nonzero;stroke:none"
         transform="matrix(0,-1,-1,0,42.949219,105.72656)"><tspan
           id="tspan120"
           y="0"
           x="0 6.296 12.592 19.488001 26.384001 30.983999 34.104 39.688 44.512001 50.360001">OOMMF(CPU)</tspan></text>
<g
         transform="matrix(1,0,0,-1,0,216)"
         id="g122"><path
           id="path124"
           style="fill:none;stroke:#000000;stroke-width:0.5;stroke-linecap:butt;stroke-linejoin:miter;stroke-miterlimit:3.79999995;stroke-dasharray:none;stroke-opacity:1"
           d="m 58.301,105.199 0,-3.699" /></g><g
         transform="matrix(1,0,0,-1,0,216)"
         id="g126"><path
           id="path128"
           style="fill:none;stroke:#000000;stroke-width:0.5;stroke-linecap:butt;stroke-linejoin:miter;stroke-miterlimit:3.79999995;stroke-dasharray:none;stroke-opacity:1"
           d="m 58.301,10.75 0,3.699" /></g><text
         id="text130"
         style="font-variant:normal;font-weight:normal;font-size:8px;font-family:'DejaVu Sans';-inkscape-font-specification:DejaVuSans;writing-mode:lr-tb;fill:#000000;fill-opacity:1;fill-rule:nonzero;stroke:none"
         transform="matrix(0,-1,-1,0,55.25,105.72656)"><tspan
           id="tspan132"
           y="0"
           x="0 5.9039998 10.784 16.264 18.799999 23.888 28.976 34.063999">GTX 650M</tspan></text>
<g
         transform="matrix(1,0,0,-1,0,216)"
         id="g134"><path
           id="path136"
           style="fill:none;stroke:#000000;stroke-width:0.5;stroke-linecap:butt;stroke-linejoin:miter;stroke-miterlimit:3.79999995;stroke-dasharray:none;stroke-opacity:1"
           d="m 70.551,105.199 0,-3.699" /></g><g
         transform="matrix(1,0,0,-1,0,216)"
         id="g138"><path
           id="path140"
           style="fill:none;stroke:#000000;stroke-width:0.5;stroke-linecap:butt;stroke-linejoin:miter;stroke-miterlimit:3.79999995;stroke-dasharray:none;stroke-opacity:1"
           d="m 70.551,10.75 0,3.699" /></g><text
         id="text142"
         style="font-variant:normal;font-weight:normal;font-size:8px;font-family:'DejaVu Sans';-inkscape-font-specification:DejaVuSans;writing-mode:lr-tb;fill:#000000;fill-opacity:1;fill-rule:nonzero;stroke:none"
         transform="matrix(0,-1,-1,0,67.5,105.72656)"><tspan
           id="tspan144"
           y="0"
           x="0 5.9039998 10.784 16.264 18.799999 23.888 28.976 34.063999">GTX 860M</tspan></text>
<g
         transform="matrix(1,0,0,-1,0,216)"
         id="g146"><path
           id="path148"
           style="fill:none;stroke:#000000;stroke-width:0.5;stroke-linecap:butt;stroke-linejoin:miter;stroke-miterlimit:3.79999995;stroke-dasharray:none;stroke-opacity:1"
           d="m 82.852,105.199 0,-3.699" /></g><g
         transform="matrix(1,0,0,-1,0,216)"
         id="g150"><path
           id="path152"
           style="fill:none;stroke:#000000;stroke-width:0.5;stroke-linecap:butt;stroke-linejoin:miter;stroke-miterlimit:3.79999995;stroke-dasharray:none;stroke-opacity:1"
           d="m 82.852,10.75 0,3.699" /></g><text
         id="text154"
         style="font-variant:normal;font-weight:normal;font-size:8px;font-family:'DejaVu Sans';-inkscape-font-specification:DejaVuSans;writing-mode:lr-tb;fill:#000000;fill-opacity:1;fill-rule:nonzero;stroke:none"
         transform="matrix(0,-1,-1,0,79.800781,105.72656)"><tspan
           id="tspan156"
           y="0"
           x="0 6.8959999 11.984 17.072001 22.16">M2070</tspan></text>
<g
         transform="matrix(1,0,0,-1,0,216)"
         id="g158"><path
           id="path160"
           style="fill:none;stroke:#000000;stroke-width:0.5;stroke-linecap:butt;stroke-linejoin:miter;stroke-miterlimit:3.79999995;stroke-dasharray:none;stroke-opacity:1"
           d="m 95.148,105.199 0,-3.699" /></g><g
         transform="matrix(1,0,0,-1,0,216)"
         id="g162"><path
           id="path164"
           style="fill:none;stroke:#000000;stroke-width:0.5;stroke-linecap:butt;stroke-linejoin:miter;stroke-miterlimit:3.79999995;stroke-dasharray:none;stroke-opacity:1"
           d="m 95.148,10.75 0,3.699" /></g><text
         id="text166"
         style="font-variant:normal;font-weight:normal;font-size:8px;font-family:'DejaVu Sans';-inkscape-font-specification:DejaVuSans;writing-mode:lr-tb;fill:#000000;fill-opacity:1;fill-rule:nonzero;stroke:none"
         transform="matrix(0,-1,-1,0,92.097656,105.72656)"><tspan
           id="tspan168"
           y="0"
           x="0 4.8800001 9.9280005 15 19.639999 25.112 27.648001 32.736 37.824001 42.911999">TESLA 2050</tspan></text>
<g
         transform="matrix(1,0,0,-1,0,216)"
         id="g170"><path
           id="path172"
           style="fill:none;stroke:#000000;stroke-width:0.5;stroke-linecap:butt;stroke-linejoin:miter;stroke-miterlimit:3.79999995;stroke-dasharray:none;stroke-opacity:1"
           d="m 107.398,105.199 0,-3.699" /></g><g
         transform="matrix(1,0,0,-1,0,216)"
         id="g174"><path
           id="path176"
           style="fill:none;stroke:#000000;stroke-width:0.5;stroke-linecap:butt;stroke-linejoin:miter;stroke-miterlimit:3.79999995;stroke-dasharray:none;stroke-opacity:1"
           d="m 107.398,10.75 0,3.699" /></g><text
         id="text178"
         style="font-variant:normal;font-weight:normal;font-size:8px;font-family:'DejaVu Sans';-inkscape-font-specification:DejaVuSans;writing-mode:lr-tb;fill:#000000;fill-opacity:1;fill-rule:nonzero;stroke:none"
         transform="matrix(0,-1,-1,0,104.34766,105.72656)"><tspan
           id="tspan180"
           y="0"
           x="0 5.9039998 10.784 16.264 18.799999 23.888 28.976">GTX 660</tspan></text>
<g
         transform="matrix(1,0,0,-1,0,216)"
         id="g182"><path
           id="path184"
           style="fill:none;stroke:#000000;stroke-width:0.5;stroke-linecap:butt;stroke-linejoin:miter;stroke-miterlimit:3.79999995;stroke-dasharray:none;stroke-opacity:1"
           d="m 119.699,105.199 0,-3.699" /></g><g
         transform="matrix(1,0,0,-1,0,216)"
         id="g186"><path
           id="path188"
           style="fill:none;stroke:#000000;stroke-width:0.5;stroke-linecap:butt;stroke-linejoin:miter;stroke-miterlimit:3.79999995;stroke-dasharray:none;stroke-opacity:1"
           d="m 119.699,10.75 0,3.699" /></g><text
         id="text190"
         style="font-variant:normal;font-weight:normal;font-size:8px;font-family:'DejaVu Sans';-inkscape-font-specification:DejaVuSans;writing-mode:lr-tb;fill:#000000;fill-opacity:1;fill-rule:nonzero;stroke:none"
         transform="matrix(0,-1,-1,0,116.64844,105.72656)"><tspan
           id="tspan192"
           y="0"
           x="0 5.9039998 10.784 16.264 18.799999 23.888 28.976">GTX 480</tspan></text>
<g
         transform="matrix(1,0,0,-1,0,216)"
         id="g194"><path
           id="path196"
           style="fill:none;stroke:#000000;stroke-width:0.5;stroke-linecap:butt;stroke-linejoin:miter;stroke-miterlimit:3.79999995;stroke-dasharray:none;stroke-opacity:1"
           d="m 131.949,105.199 0,-3.699" /></g><g
         transform="matrix(1,0,0,-1,0,216)"
         id="g198"><path
           id="path200"
           style="fill:none;stroke:#000000;stroke-width:0.5;stroke-linecap:butt;stroke-linejoin:miter;stroke-miterlimit:3.79999995;stroke-dasharray:none;stroke-opacity:1"
           d="m 131.949,10.75 0,3.699" /></g><text
         id="text202"
         style="font-variant:normal;font-weight:normal;font-size:8px;font-family:'DejaVu Sans';-inkscape-font-specification:DejaVuSans;writing-mode:lr-tb;fill:#000000;fill-opacity:1;fill-rule:nonzero;stroke:none"
         transform="matrix(0,-1,-1,0,128.89844,105.72656)"><tspan
           id="tspan204"
           y="0"
           x="0 5.9039998 10.784 16.264 18.799999 23.888 28.976">GTX 680</tspan></text>
<g
         transform="matrix(1,0,0,-1,0,216)"
         id="g206"><path
           id="path208"
           style="fill:none;stroke:#000000;stroke-width:0.5;stroke-linecap:butt;stroke-linejoin:miter;stroke-miterlimit:3.79999995;stroke-dasharray:none;stroke-opacity:1"
           d="m 144.25,105.199 0,-3.699" /></g><g
         transform="matrix(1,0,0,-1,0,216)"
         id="g210"><path
           id="path212"
           style="fill:none;stroke:#000000;stroke-width:0.5;stroke-linecap:butt;stroke-linejoin:miter;stroke-miterlimit:3.79999995;stroke-dasharray:none;stroke-opacity:1"
           d="m 144.25,10.75 0,3.699" /></g><text
         id="text214"
         style="font-variant:normal;font-weight:normal;font-size:8px;font-family:'DejaVu Sans';-inkscape-font-specification:DejaVuSans;writing-mode:lr-tb;fill:#000000;fill-opacity:1;fill-rule:nonzero;stroke:none"
         transform="matrix(0,-1,-1,0,141.19922,105.72656)"><tspan
           id="tspan216"
           y="0"
           x="0 5.9039998 10.784 16.264 18.799999 23.888 28.976">GTX 970</tspan></text>
<g
         transform="matrix(1,0,0,-1,0,216)"
         id="g218"><path
           id="path220"
           style="fill:none;stroke:#000000;stroke-width:0.5;stroke-linecap:butt;stroke-linejoin:miter;stroke-miterlimit:3.79999995;stroke-dasharray:none;stroke-opacity:1"
           d="m 156.5,105.199 0,-3.699" /></g><g
         transform="matrix(1,0,0,-1,0,216)"
         id="g222"><path
           id="path224"
           style="fill:none;stroke:#000000;stroke-width:0.5;stroke-linecap:butt;stroke-linejoin:miter;stroke-miterlimit:3.79999995;stroke-dasharray:none;stroke-opacity:1"
           d="m 156.5,10.75 0,3.699" /></g><text
         id="text226"
         style="font-variant:normal;font-weight:normal;font-size:8px;font-family:'DejaVu Sans';-inkscape-font-specification:DejaVuSans;writing-mode:lr-tb;fill:#000000;fill-opacity:1;fill-rule:nonzero;stroke:none"
         transform="matrix(0,-1,-1,0,153.44922,105.72656)"><tspan
           id="tspan228"
           y="0"
           x="0 5.9039998 10.784 16.264 18.799999 23.888 28.976">GTX 580</tspan></text>
<g
         transform="matrix(1,0,0,-1,0,216)"
         id="g230"><path
           id="path232"
           style="fill:none;stroke:#000000;stroke-width:0.5;stroke-linecap:butt;stroke-linejoin:miter;stroke-miterlimit:3.79999995;stroke-dasharray:none;stroke-opacity:1"
           d="m 168.801,105.199 0,-3.699" /></g><g
         transform="matrix(1,0,0,-1,0,216)"
         id="g234"><path
           id="path236"
           style="fill:none;stroke:#000000;stroke-width:0.5;stroke-linecap:butt;stroke-linejoin:miter;stroke-miterlimit:3.79999995;stroke-dasharray:none;stroke-opacity:1"
           d="m 168.801,10.75 0,3.699" /></g><text
         id="text238"
         style="font-variant:normal;font-weight:normal;font-size:8px;font-family:'DejaVu Sans';-inkscape-font-specification:DejaVuSans;writing-mode:lr-tb;fill:#000000;fill-opacity:1;fill-rule:nonzero;stroke:none"
         transform="matrix(0,-1,-1,0,165.75,105.72656)"><tspan
           id="tspan240"
           y="0"
           x="0 5.9039998 10.784 16.264 18.799999 23.888 28.976 34.063999 39.152 41.688 44.807999 52.599998 57.487999 62.560001 64.776001 66.991997 71.912003">GTX 1060 (mobile)</tspan></text>
<g
         transform="matrix(1,0,0,-1,0,216)"
         id="g242"><path
           id="path244"
           style="fill:none;stroke:#000000;stroke-width:0.5;stroke-linecap:butt;stroke-linejoin:miter;stroke-miterlimit:3.79999995;stroke-dasharray:none;stroke-opacity:1"
           d="m 181.051,105.199 0,-3.699" /></g><g
         transform="matrix(1,0,0,-1,0,216)"
         id="g246"><path
           id="path248"
           style="fill:none;stroke:#000000;stroke-width:0.5;stroke-linecap:butt;stroke-linejoin:miter;stroke-miterlimit:3.79999995;stroke-dasharray:none;stroke-opacity:1"
           d="m 181.051,10.75 0,3.699" /></g><text
         id="text250"
         style="font-variant:normal;font-weight:normal;font-size:8px;font-family:'DejaVu Sans';-inkscape-font-specification:DejaVuSans;writing-mode:lr-tb;fill:#000000;fill-opacity:1;fill-rule:nonzero;stroke:none"
         transform="matrix(0,-1,-1,0,178,105.72656)"><tspan
           id="tspan252"
           y="0"
           x="0 5.2399998 10.328 15.416 20.896">K20XM</tspan></text>
<g
         transform="matrix(1,0,0,-1,0,216)"
         id="g254"><path
           id="path256"
           style="fill:none;stroke:#000000;stroke-width:0.5;stroke-linecap:butt;stroke-linejoin:miter;stroke-miterlimit:3.79999995;stroke-dasharray:none;stroke-opacity:1"
           d="m 193.352,105.199 0,-3.699" /></g><g
         transform="matrix(1,0,0,-1,0,216)"
         id="g258"><path
           id="path260"
           style="fill:none;stroke:#000000;stroke-width:0.5;stroke-linecap:butt;stroke-linejoin:miter;stroke-miterlimit:3.79999995;stroke-dasharray:none;stroke-opacity:1"
           d="m 193.352,10.75 0,3.699" /></g><text
         id="text262"
         style="font-variant:normal;font-weight:normal;font-size:8px;font-family:'DejaVu Sans';-inkscape-font-specification:DejaVuSans;writing-mode:lr-tb;fill:#000000;fill-opacity:1;fill-rule:nonzero;stroke:none"
         transform="matrix(0,-1,-1,0,190.30078,105.72656)"><tspan
           id="tspan264"
           y="0"
           x="0 5.9039998 10.784 16.264 18.799999 23.888 28.976">GTX 980</tspan></text>
<g
         transform="matrix(1,0,0,-1,0,216)"
         id="g266"><path
           id="path268"
           style="fill:none;stroke:#000000;stroke-width:0.5;stroke-linecap:butt;stroke-linejoin:miter;stroke-miterlimit:3.79999995;stroke-dasharray:none;stroke-opacity:1"
           d="m 205.602,105.199 0,-3.699" /></g><g
         transform="matrix(1,0,0,-1,0,216)"
         id="g270"><path
           id="path272"
           style="fill:none;stroke:#000000;stroke-width:0.5;stroke-linecap:butt;stroke-linejoin:miter;stroke-miterlimit:3.79999995;stroke-dasharray:none;stroke-opacity:1"
           d="m 205.602,10.75 0,3.699" /></g><text
         id="text274"
         style="font-variant:normal;font-weight:normal;font-size:8px;font-family:'DejaVu Sans';-inkscape-font-specification:DejaVuSans;writing-mode:lr-tb;fill:#000000;fill-opacity:1;fill-rule:nonzero;stroke:none"
         transform="matrix(0,-1,-1,0,202.55078,105.72656)"><tspan
           id="tspan276"
           y="0"
           x="0 5.9039998 10.784 16.264 18.799999 23.68 26.032 30.296 35.768002 41.751999 44.287998 49.776001 54.416 59.743999 65.328003 70.568001 73.103996 77.704002">GTX TITAN BLACK FE</tspan></text>
<g
         transform="matrix(1,0,0,-1,0,216)"
         id="g278"><path
           id="path280"
           style="fill:none;stroke:#000000;stroke-width:0.5;stroke-linecap:butt;stroke-linejoin:miter;stroke-miterlimit:3.79999995;stroke-dasharray:none;stroke-opacity:1"
           d="m 217.898,105.199 0,-3.699" /></g><g
         transform="matrix(1,0,0,-1,0,216)"
         id="g282"><path
           id="path284"
           style="fill:none;stroke:#000000;stroke-width:0.5;stroke-linecap:butt;stroke-linejoin:miter;stroke-miterlimit:3.79999995;stroke-dasharray:none;stroke-opacity:1"
           d="m 217.898,10.75 0,3.699" /></g><text
         id="text286"
         style="font-variant:normal;font-weight:normal;font-size:8px;font-family:'DejaVu Sans';-inkscape-font-specification:DejaVuSans;writing-mode:lr-tb;fill:#000000;fill-opacity:1;fill-rule:nonzero;stroke:none"
         transform="matrix(0,-1,-1,0,214.84766,105.72656)"><tspan
           id="tspan288"
           y="0"
           x="0 5.9039998 10.784 16.264 18.799999 23.68 26.032 30.296 35.768002">GTX TITAN</tspan></text>
<g
         transform="matrix(1,0,0,-1,0,216)"
         id="g290"><path
           id="path292"
           style="fill:none;stroke:#000000;stroke-width:0.5;stroke-linecap:butt;stroke-linejoin:miter;stroke-miterlimit:3.79999995;stroke-dasharray:none;stroke-opacity:1"
           d="m 230.199,105.199 0,-3.699" /></g><g
         transform="matrix(1,0,0,-1,0,216)"
         id="g294"><path
           id="path296"
           style="fill:none;stroke:#000000;stroke-width:0.5;stroke-linecap:butt;stroke-linejoin:miter;stroke-miterlimit:3.79999995;stroke-dasharray:none;stroke-opacity:1"
           d="m 230.199,10.75 0,3.699" /></g><text
         id="text298"
         style="font-variant:normal;font-weight:normal;font-size:8px;font-family:'DejaVu Sans';-inkscape-font-specification:DejaVuSans;writing-mode:lr-tb;fill:#000000;fill-opacity:1;fill-rule:nonzero;stroke:none"
         transform="matrix(0,-1,-1,0,227.14844,105.72656)"><tspan
           id="tspan300"
           y="0"
           x="0 5.9039998 10.784 16.264 18.799999 23.888 28.976 34.063999">GTX 1080</tspan></text>
<g
         transform="matrix(1,0,0,-1,0,216)"
         id="g302"><path
           id="path304"
           style="fill:none;stroke:#000000;stroke-width:0.5;stroke-linecap:butt;stroke-linejoin:miter;stroke-miterlimit:3.79999995;stroke-dasharray:none;stroke-opacity:1"
           d="m 242.449,105.199 0,-3.699" /></g><g
         transform="matrix(1,0,0,-1,0,216)"
         id="g306"><path
           id="path308"
           style="fill:none;stroke:#000000;stroke-width:0.5;stroke-linecap:butt;stroke-linejoin:miter;stroke-miterlimit:3.79999995;stroke-dasharray:none;stroke-opacity:1"
           d="m 242.449,10.75 0,3.699" /></g><text
         id="text310"
         style="font-variant:normal;font-weight:normal;font-size:8px;font-family:'DejaVu Sans';-inkscape-font-specification:DejaVuSans;writing-mode:lr-tb;fill:#000000;fill-opacity:1;fill-rule:nonzero;stroke:none"
         transform="matrix(0,-1,-1,0,239.39844,105.72656)"><tspan
           id="tspan312"
           y="0"
           x="0 5.9039998 10.784 16.264 18.799999 23.888 28.976 34.063999 36.599998 41.240002">GTX 980 Ti</tspan></text>
<g
         transform="matrix(1,0,0,-1,0,216)"
         id="g314"><path
           id="path316"
           style="fill:none;stroke:#000000;stroke-width:0.5;stroke-linecap:butt;stroke-linejoin:miter;stroke-miterlimit:3.79999995;stroke-dasharray:none;stroke-opacity:1"
           d="m 254.75,105.199 0,-3.699" /></g><g
         transform="matrix(1,0,0,-1,0,216)"
         id="g318"><path
           id="path320"
           style="fill:none;stroke:#000000;stroke-width:0.5;stroke-linecap:butt;stroke-linejoin:miter;stroke-miterlimit:3.79999995;stroke-dasharray:none;stroke-opacity:1"
           d="m 254.75,10.75 0,3.699" /></g><text
         id="text322"
         style="font-variant:normal;font-weight:normal;font-size:8px;font-family:'DejaVu Sans';-inkscape-font-specification:DejaVuSans;writing-mode:lr-tb;fill:#000000;fill-opacity:1;fill-rule:nonzero;stroke:none"
         transform="matrix(0,-1,-1,0,251.69922,105.72656)"><tspan
           id="tspan324"
           y="0"
           x="0 5.9039998 10.784 16.264 18.799999 23.68 26.032 30.296 35.768002 41.751999 44.287998 49.768002 52.304001 55.424 59.888 64.783997 68.944 73.335999 78.232002 80.447998">GTX TITAN X (Pascal)</tspan></text>
<g
         transform="matrix(1,0,0,-1,0,216)"
         id="g326"><path
           id="path328"
           style="fill:none;stroke:#000000;stroke-width:0.5;stroke-linecap:butt;stroke-linejoin:miter;stroke-miterlimit:3.79999995;stroke-dasharray:none;stroke-opacity:1"
           d="m 267,105.199 0,-3.699" /></g><g
         transform="matrix(1,0,0,-1,0,216)"
         id="g330"><path
           id="path332"
           style="fill:none;stroke:#000000;stroke-width:0.5;stroke-linecap:butt;stroke-linejoin:miter;stroke-miterlimit:3.79999995;stroke-dasharray:none;stroke-opacity:1"
           d="m 267,10.75 0,3.699" /></g><text
         id="text334"
         style="font-variant:normal;font-weight:normal;font-size:8px;font-family:'DejaVu Sans';-inkscape-font-specification:DejaVuSans;writing-mode:lr-tb;fill:#000000;fill-opacity:1;fill-rule:nonzero;stroke:none"
         transform="matrix(0,-1,-1,0,263.94922,105.72656)"><tspan
           id="tspan336"
           y="0"
           x="0 5.9039998 10.784 16.264 18.799999 23.68 26.032 30.296 35.768002 41.751999 44.287998 49.768002">GTX TITAN Xp</tspan></text>
<g
         transform="matrix(1,0,0,-1,0,216)"
         id="g338"><path
           id="path340"
           style="fill:none;stroke:#000000;stroke-width:0.5;stroke-linecap:butt;stroke-linejoin:miter;stroke-miterlimit:3.79999995;stroke-dasharray:none;stroke-opacity:1"
           d="m 42.949,10.75 230.199,0 0,94.449 -230.199,0 0,-94.449 z" /></g><text
         id="text342"
         style="font-variant:normal;font-weight:normal;font-size:8px;font-family:'DejaVu Sans';-inkscape-font-specification:DejaVuSans;writing-mode:lr-tb;fill:#000000;fill-opacity:1;fill-rule:nonzero;stroke:none"
         transform="matrix(0,1,1,0,10.699219,114.15234)"><tspan
           id="tspan344"
           y="0"
           x="0 3.1359999 8.1999998 11.312 16.200001 21.264 26.336 31.4 36.472 41.535999 44.672001 47.208 50.327999 57.223999 59.759998 64.152 69.071999 71.288002 73.503998 77.664001 80.351997 84.512001">throughput (M cells/s)</tspan></text>
<path
         id="path346"
         style="fill:#9400d3;fill-opacity:1;fill-rule:nonzero;stroke:none"
         d="m 55.25,116.5 6.148,0 0,-5.699 -6.148,0 0,5.699 z" /><g
         transform="matrix(1,0,0,-1,0,216)"
         id="g348"><path
           id="path350"
           style="fill:none;stroke:#9400d3;stroke-width:0.5;stroke-linecap:butt;stroke-linejoin:miter;stroke-miterlimit:3.79999995;stroke-dasharray:none;stroke-opacity:1"
           d="m 55.25,99.551 6.102,0 0,5.648 -6.102,0 0,-5.648 z" /></g><path
         id="path352"
         style="fill:#9400d3;fill-opacity:1;fill-rule:nonzero;stroke:none"
         d="m 67.5,125.75 6.199,0 0,-14.949 -6.199,0 0,14.949 z" /><g
         transform="matrix(1,0,0,-1,0,216)"
         id="g354"><path
           id="path356"
           style="fill:none;stroke:#9400d3;stroke-width:0.5;stroke-linecap:butt;stroke-linejoin:miter;stroke-miterlimit:3.79999995;stroke-dasharray:none;stroke-opacity:1"
           d="m 67.5,90.301 6.148,0 0,14.898 -6.148,0 0,-14.898 z" /></g><path
         id="path358"
         style="fill:#9400d3;fill-opacity:1;fill-rule:nonzero;stroke:none"
         d="m 79.801,128.902 6.148,0 0,-18.102 -6.148,0 0,18.102 z" /><g
         transform="matrix(1,0,0,-1,0,216)"
         id="g360"><path
           id="path362"
           style="fill:none;stroke:#9400d3;stroke-width:0.5;stroke-linecap:butt;stroke-linejoin:miter;stroke-miterlimit:3.79999995;stroke-dasharray:none;stroke-opacity:1"
           d="m 79.801,87.148 6.098,0 0,18.051 -6.098,0 0,-18.051 z" /></g><path
         id="path364"
         style="fill:#9400d3;fill-opacity:1;fill-rule:nonzero;stroke:none"
         d="m 92.051,129.602 6.199,0 0,-18.801 -6.199,0 0,18.801 z" /><g
         transform="matrix(1,0,0,-1,0,216)"
         id="g366"><path
           id="path368"
           style="fill:none;stroke:#9400d3;stroke-width:0.5;stroke-linecap:butt;stroke-linejoin:miter;stroke-miterlimit:3.79999995;stroke-dasharray:none;stroke-opacity:1"
           d="m 92.051,86.449 6.148,0 0,18.75 -6.148,0 0,-18.75 z" /></g><path
         id="path370"
         style="fill:#9400d3;fill-opacity:1;fill-rule:nonzero;stroke:none"
         d="m 104.352,134.5 6.199,0 0,-23.699 -6.199,0 0,23.699 z" /><g
         transform="matrix(1,0,0,-1,0,216)"
         id="g372"><path
           id="path374"
           style="fill:none;stroke:#9400d3;stroke-width:0.5;stroke-linecap:butt;stroke-linejoin:miter;stroke-miterlimit:3.79999995;stroke-dasharray:none;stroke-opacity:1"
           d="m 104.352,81.551 6.148,0 0,23.648 -6.148,0 0,-23.648 z" /></g><path
         id="path376"
         style="fill:#9400d3;fill-opacity:1;fill-rule:nonzero;stroke:none"
         d="m 116.602,141.199 6.199,0 0,-30.398 -6.199,0 0,30.398 z" /><g
         transform="matrix(1,0,0,-1,0,216)"
         id="g378"><path
           id="path380"
           style="fill:none;stroke:#9400d3;stroke-width:0.5;stroke-linecap:butt;stroke-linejoin:miter;stroke-miterlimit:3.79999995;stroke-dasharray:none;stroke-opacity:1"
           d="m 116.602,74.852 6.148,0 0,30.348 -6.148,0 0,-30.348 z" /></g><path
         id="path382"
         style="fill:#9400d3;fill-opacity:1;fill-rule:nonzero;stroke:none"
         d="m 128.898,141.699 6.199,0 0,-30.898 -6.199,0 0,30.898 z" /><g
         transform="matrix(1,0,0,-1,0,216)"
         id="g384"><path
           id="path386"
           style="fill:none;stroke:#9400d3;stroke-width:0.5;stroke-linecap:butt;stroke-linejoin:miter;stroke-miterlimit:3.79999995;stroke-dasharray:none;stroke-opacity:1"
           d="m 128.898,74.352 6.152,0 0,30.848 -6.152,0 0,-30.848 z" /></g><path
         id="path388"
         style="fill:#9400d3;fill-opacity:1;fill-rule:nonzero;stroke:none"
         d="m 141.148,143.402 6.199,0 0,-32.602 -6.199,0 0,32.602 z" /><g
         transform="matrix(1,0,0,-1,0,216)"
         id="g390"><path
           id="path392"
           style="fill:none;stroke:#9400d3;stroke-width:0.5;stroke-linecap:butt;stroke-linejoin:miter;stroke-miterlimit:3.79999995;stroke-dasharray:none;stroke-opacity:1"
           d="m 141.148,72.648 6.152,0 0,32.551 -6.152,0 0,-32.551 z" /></g><path
         id="path394"
         style="fill:#9400d3;fill-opacity:1;fill-rule:nonzero;stroke:none"
         d="m 153.449,145.301 6.199,0 0,-34.5 -6.199,0 0,34.5 z" /><g
         transform="matrix(1,0,0,-1,0,216)"
         id="g396"><path
           id="path398"
           style="fill:none;stroke:#9400d3;stroke-width:0.5;stroke-linecap:butt;stroke-linejoin:miter;stroke-miterlimit:3.79999995;stroke-dasharray:none;stroke-opacity:1"
           d="m 153.449,70.75 6.152,0 0,34.449 -6.152,0 0,-34.449 z" /></g><path
         id="path400"
         style="fill:#9400d3;fill-opacity:1;fill-rule:nonzero;stroke:none"
         d="m 165.699,145.449 6.199,0 0,-34.648 -6.199,0 0,34.648 z" /><g
         transform="matrix(1,0,0,-1,0,216)"
         id="g402"><path
           id="path404"
           style="fill:none;stroke:#9400d3;stroke-width:0.5;stroke-linecap:butt;stroke-linejoin:miter;stroke-miterlimit:3.79999995;stroke-dasharray:none;stroke-opacity:1"
           d="m 165.699,70.602 6.152,0 0,34.598 -6.152,0 0,-34.598 z" /></g><path
         id="path406"
         style="fill:#9400d3;fill-opacity:1;fill-rule:nonzero;stroke:none"
         d="m 178,146.102 6.199,0 0,-35.301 -6.199,0 0,35.301 z" /><g
         transform="matrix(1,0,0,-1,0,216)"
         id="g408"><path
           id="path410"
           style="fill:none;stroke:#9400d3;stroke-width:0.5;stroke-linecap:butt;stroke-linejoin:miter;stroke-miterlimit:3.79999995;stroke-dasharray:none;stroke-opacity:1"
           d="m 178,69.949 6.148,0 0,35.25 -6.148,0 0,-35.25 z" /></g><path
         id="path412"
         style="fill:#9400d3;fill-opacity:1;fill-rule:nonzero;stroke:none"
         d="m 190.301,146.551 6.148,0 0,-35.75 -6.148,0 0,35.75 z" /><g
         transform="matrix(1,0,0,-1,0,216)"
         id="g414"><path
           id="path416"
           style="fill:none;stroke:#9400d3;stroke-width:0.5;stroke-linecap:butt;stroke-linejoin:miter;stroke-miterlimit:3.79999995;stroke-dasharray:none;stroke-opacity:1"
           d="m 190.301,69.5 6.098,0 0,35.699 -6.098,0 0,-35.699 z" /></g><path
         id="path418"
         style="fill:#9400d3;fill-opacity:1;fill-rule:nonzero;stroke:none"
         d="m 202.551,158.152 6.199,0 0,-47.352 -6.199,0 0,47.352 z" /><g
         transform="matrix(1,0,0,-1,0,216)"
         id="g420"><path
           id="path422"
           style="fill:none;stroke:#9400d3;stroke-width:0.5;stroke-linecap:butt;stroke-linejoin:miter;stroke-miterlimit:3.79999995;stroke-dasharray:none;stroke-opacity:1"
           d="m 202.551,57.898 6.148,0 0,47.301 -6.148,0 0,-47.301 z" /></g><path
         id="path424"
         style="fill:#9400d3;fill-opacity:1;fill-rule:nonzero;stroke:none"
         d="m 214.852,159.352 6.148,0 0,-48.551 -6.148,0 0,48.551 z" /><g
         transform="matrix(1,0,0,-1,0,216)"
         id="g426"><path
           id="path428"
           style="fill:none;stroke:#9400d3;stroke-width:0.5;stroke-linecap:butt;stroke-linejoin:miter;stroke-miterlimit:3.79999995;stroke-dasharray:none;stroke-opacity:1"
           d="m 214.852,56.699 6.098,0 0,48.5 -6.098,0 0,-48.5 z" /></g><path
         id="path430"
         style="fill:#9400d3;fill-opacity:1;fill-rule:nonzero;stroke:none"
         d="m 227.102,162.051 6.199,0 0,-51.25 -6.199,0 0,51.25 z" /><g
         transform="matrix(1,0,0,-1,0,216)"
         id="g432"><path
           id="path434"
           style="fill:none;stroke:#9400d3;stroke-width:0.5;stroke-linecap:butt;stroke-linejoin:miter;stroke-miterlimit:3.79999995;stroke-dasharray:none;stroke-opacity:1"
           d="m 227.102,54 6.148,0 0,51.199 -6.148,0 0,-51.199 z" /></g><path
         id="path436"
         style="fill:#9400d3;fill-opacity:1;fill-rule:nonzero;stroke:none"
         d="m 239.398,164.699 6.199,0 0,-53.898 -6.199,0 0,53.898 z" /><g
         transform="matrix(1,0,0,-1,0,216)"
         id="g438"><path
           id="path440"
           style="fill:none;stroke:#9400d3;stroke-width:0.5;stroke-linecap:butt;stroke-linejoin:miter;stroke-miterlimit:3.79999995;stroke-dasharray:none;stroke-opacity:1"
           d="m 239.398,51.352 6.152,0 0,53.848 -6.152,0 0,-53.848 z" /></g><path
         id="path442"
         style="fill:#9400d3;fill-opacity:1;fill-rule:nonzero;stroke:none"
         d="m 251.648,185 6.199,0 0,-74.199 -6.199,0 0,74.199 z" /><g
         transform="matrix(1,0,0,-1,0,216)"
         id="g444"><path
           id="path446"
           style="fill:none;stroke:#9400d3;stroke-width:0.5;stroke-linecap:butt;stroke-linejoin:miter;stroke-miterlimit:3.79999995;stroke-dasharray:none;stroke-opacity:1"
           d="m 251.648,31.051 6.152,0 0,74.148 -6.152,0 0,-74.148 z" /></g><path
         id="path448"
         style="fill:#9400d3;fill-opacity:1;fill-rule:nonzero;stroke:none"
         d="m 263.949,202.949 6.199,0 0,-92.148 -6.199,0 0,92.148 z" /><g
         transform="matrix(1,0,0,-1,0,216)"
         id="g450"><path
           id="path452"
           style="fill:none;stroke:#9400d3;stroke-width:0.5;stroke-linecap:butt;stroke-linejoin:miter;stroke-miterlimit:3.79999995;stroke-dasharray:none;stroke-opacity:1"
           d="m 263.949,13.102 6.152,0 0,92.098 -6.152,0 0,-92.098 z" /></g><path
         id="path454"
         style="fill:#009e73;fill-opacity:1;fill-rule:nonzero;stroke:none"
         d="m 42.949,111.25 6.199,0 0,-0.449 -6.199,0 0,0.449 z" /><g
         transform="matrix(1,0,0,-1,0,216)"
         id="g456"><path
           id="path458"
           style="fill:none;stroke:#009e73;stroke-width:0.5;stroke-linecap:butt;stroke-linejoin:miter;stroke-miterlimit:3.79999995;stroke-dasharray:none;stroke-opacity:1"
           d="m 42.949,104.801 6.152,0 0,0.398 -6.152,0 0,-0.398 z" /></g><g
         transform="matrix(1,0,0,-1,0,216)"
         id="g460"><path
           id="path462"
           style="fill:none;stroke:#000000;stroke-width:0.5;stroke-linecap:butt;stroke-linejoin:miter;stroke-miterlimit:3.79999995;stroke-dasharray:none;stroke-opacity:1"
           d="m 42.949,10.75 230.199,0 0,94.449 -230.199,0 0,-94.449 z" /></g></g></g></svg>