<?xml version="1.0" encoding="utf-8"  standalone="no"?>

<svg width="600" height="470" viewBox="0 0 600 470" xmlns="http://www.w3.org/2000/svg" xlink="http://www.w3.org/1999/xlink">
<style type="text/css">
	polygon {
		transition: fill 0.3s linear;
	}
	polygon:hover {
		fill:rgb(37,0,53);
		transition: fill 0s;
	}
</style>

<title>Gnuplot</title>
<desc>Produced by GNUPLOT 5.4 patchlevel 8 </desc>

<g id="gnuplot_canvas">

<rect x="0" y="0" width="600" height="470" fill="none"></rect>
<defs>

	<circle id="gpDot" r="0.5" stroke-width="0.5" stroke="currentColor"></circle>
	<path id="gpPt0" stroke-width="0.242" stroke="currentColor" d="M-1,0 h2 M0,-1 v2"></path>
	<path id="gpPt1" stroke-width="0.242" stroke="currentColor" d="M-1,-1 L1,1 M1,-1 L-1,1"></path>
	<path id="gpPt2" stroke-width="0.242" stroke="currentColor" d="M-1,0 L1,0 M0,-1 L0,1 M-1,-1 L1,1 M-1,1 L1,-1"></path>
	<rect id="gpPt3" stroke-width="0.242" stroke="currentColor" x="-1" y="-1" width="2" height="2"></rect>
	<rect id="gpPt4" stroke-width="0.242" stroke="currentColor" fill="currentColor" x="-1" y="-1" width="2" height="2"></rect>
	<circle id="gpPt5" stroke-width="0.242" stroke="currentColor" cx="0" cy="0" r="1"></circle>
	<use href="#gpPt5" id="gpPt6" fill="currentColor" stroke="none"></use>
	<path id="gpPt7" stroke-width="0.242" stroke="currentColor" d="M0,-1.33 L-1.33,0.67 L1.33,0.67 z"></path>
	<use href="#gpPt7" id="gpPt8" fill="currentColor" stroke="none"></use>
	<use href="#gpPt7" id="gpPt9" stroke="currentColor" transform="rotate(180)"></use>
	<use href="#gpPt9" id="gpPt10" fill="currentColor" stroke="none"></use>
	<use href="#gpPt3" id="gpPt11" stroke="currentColor" transform="rotate(45)"></use>
	<use href="#gpPt11" id="gpPt12" fill="currentColor" stroke="none"></use>
	<path id="gpPt13" stroke-width="0.242" stroke="currentColor" d="M0,1.330 L1.265,0.411 L0.782,-1.067 L-0.782,-1.076 L-1.265,0.411 z"></path>
	<use href="#gpPt13" id="gpPt14" fill="currentColor" stroke="none"></use>
	<filter id="textbox" filterUnits="objectBoundingBox" x="0" y="0" height="1" width="1">
	  <feFlood flood-color="white" flood-opacity="1" result="bgnd"></feFlood>
	  <feComposite in="SourceGraphic" in2="bgnd" operator="atop"></feComposite>
	</filter>
	<filter id="greybox" filterUnits="objectBoundingBox" x="0" y="0" height="1" width="1">
	  <feFlood flood-color="lightgrey" flood-opacity="1" result="grey"></feFlood>
	  <feComposite in="SourceGraphic" in2="grey" operator="atop"></feComposite>
	</filter>
</defs>
<g fill="none" color="white" stroke="currentColor" stroke-width="1.00" stroke-linecap="butt" stroke-linejoin="miter">
</g>
<g fill="none" color="black" stroke="currentColor" stroke-width="1.00" stroke-linecap="butt" stroke-linejoin="miter">
	<path stroke="black" d="M74.17,253.56 L82.42,253.56 M576.92,253.56 L568.67,253.56  "></path>	<g transform="translate(66.48,257.14)" stroke="none" fill="black" font-family="DejaVu Sans" font-size="11.00" text-anchor="end">
		<text><tspan font-family="DejaVu Sans"> 0</tspan></text>
	</g>
</g>
<g fill="none" color="black" stroke="currentColor" stroke-width="1.00" stroke-linecap="butt" stroke-linejoin="miter">
	<path stroke="black" d="M74.17,215.63 L82.42,215.63 M576.92,215.63 L568.67,215.63  "></path>	<g transform="translate(66.48,219.21)" stroke="none" fill="black" font-family="DejaVu Sans" font-size="11.00" text-anchor="end">
		<text><tspan font-family="DejaVu Sans"> 200</tspan></text>
	</g>
</g>
<g fill="none" color="black" stroke="currentColor" stroke-width="1.00" stroke-linecap="butt" stroke-linejoin="miter">
	<path stroke="black" d="M74.17,177.70 L82.42,177.70 M576.92,177.70 L568.67,177.70  "></path>	<g transform="translate(66.48,181.28)" stroke="none" fill="black" font-family="DejaVu Sans" font-size="11.00" text-anchor="end">
		<text><tspan font-family="DejaVu Sans"> 400</tspan></text>
	</g>
</g>
<g fill="none" color="black" stroke="currentColor" stroke-width="1.00" stroke-linecap="butt" stroke-linejoin="miter">
	<path stroke="black" d="M74.17,139.78 L82.42,139.78 M576.92,139.78 L568.67,139.78  "></path>	<g transform="translate(66.48,143.36)" stroke="none" fill="black" font-family="DejaVu Sans" font-size="11.00" text-anchor="end">
		<text><tspan font-family="DejaVu Sans"> 600</tspan></text>
	</g>
</g>
<g fill="none" color="black" stroke="currentColor" stroke-width="1.00" stroke-linecap="butt" stroke-linejoin="miter">
	<path stroke="black" d="M74.17,101.85 L82.42,101.85 M576.92,101.85 L568.67,101.85  "></path>	<g transform="translate(66.48,105.43)" stroke="none" fill="black" font-family="DejaVu Sans" font-size="11.00" text-anchor="end">
		<text><tspan font-family="DejaVu Sans"> 800</tspan></text>
	</g>
</g>
<g fill="none" color="black" stroke="currentColor" stroke-width="1.00" stroke-linecap="butt" stroke-linejoin="miter">
	<path stroke="black" d="M74.17,63.92 L82.42,63.92 M576.92,63.92 L568.67,63.92  "></path>	<g transform="translate(66.48,67.50)" stroke="none" fill="black" font-family="DejaVu Sans" font-size="11.00" text-anchor="end">
		<text><tspan font-family="DejaVu Sans"> 1000</tspan></text>
	</g>
</g>
<g fill="none" color="black" stroke="currentColor" stroke-width="1.00" stroke-linecap="butt" stroke-linejoin="miter">
	<path stroke="black" d="M74.17,25.99 L82.42,25.99 M576.92,25.99 L568.67,25.99  "></path>	<g transform="translate(66.48,29.57)" stroke="none" fill="black" font-family="DejaVu Sans" font-size="11.00" text-anchor="end">
		<text><tspan font-family="DejaVu Sans"> 1200</tspan></text>
	</g>
</g>
<g fill="none" color="black" stroke="currentColor" stroke-width="1.00" stroke-linecap="butt" stroke-linejoin="miter">
	<path stroke="black" d="M77.08,253.56 M77.08,16.51  "></path>	<g transform="translate(73.50,261.25) rotate(90)" stroke="none" fill="black" font-family="DejaVu Sans" font-size="11.00" text-anchor="start">
		<text><tspan font-family="DejaVu Sans">OOMMF (CPU)</tspan></text>
	</g>
</g>
<g fill="none" color="black" stroke="currentColor" stroke-width="1.00" stroke-linecap="butt" stroke-linejoin="miter">
	<path stroke="black" d="M86.76,253.56 M86.76,16.51  "></path>	<g transform="translate(83.18,261.25) rotate(90)" stroke="none" fill="black" font-family="DejaVu Sans" font-size="11.00" text-anchor="start">
		<text><tspan font-family="DejaVu Sans">940MX</tspan></text>
	</g>
</g>
<g fill="none" color="black" stroke="currentColor" stroke-width="1.00" stroke-linecap="butt" stroke-linejoin="miter">
	<path stroke="black" d="M96.45,253.56 M96.45,16.51  "></path>	<g transform="translate(92.87,261.25) rotate(90)" stroke="none" fill="black" font-family="DejaVu Sans" font-size="11.00" text-anchor="start">
		<text><tspan font-family="DejaVu Sans">MX250</tspan></text>
	</g>
</g>
<g fill="none" color="black" stroke="currentColor" stroke-width="1.00" stroke-linecap="butt" stroke-linejoin="miter">
	<path stroke="black" d="M106.14,253.56 M106.14,16.51  "></path>	<g transform="translate(102.56,261.25) rotate(90)" stroke="none" fill="black" font-family="DejaVu Sans" font-size="11.00" text-anchor="start">
		<text><tspan font-family="DejaVu Sans">MX150</tspan></text>
	</g>
</g>
<g fill="none" color="black" stroke="currentColor" stroke-width="1.00" stroke-linecap="butt" stroke-linejoin="miter">
	<path stroke="black" d="M115.82,253.56 M115.82,16.51  "></path>	<g transform="translate(112.24,261.25) rotate(90)" stroke="none" fill="black" font-family="DejaVu Sans" font-size="11.00" text-anchor="start">
		<text><tspan font-family="DejaVu Sans">GTX 860M</tspan></text>
	</g>
</g>
<g fill="none" color="black" stroke="currentColor" stroke-width="1.00" stroke-linecap="butt" stroke-linejoin="miter">
	<path stroke="black" d="M125.51,253.56 M125.51,16.51  "></path>	<g transform="translate(121.93,261.25) rotate(90)" stroke="none" fill="black" font-family="DejaVu Sans" font-size="11.00" text-anchor="start">
		<text><tspan font-family="DejaVu Sans">GTX 1050 (mobile)</tspan></text>
	</g>
</g>
<g fill="none" color="black" stroke="currentColor" stroke-width="1.00" stroke-linecap="butt" stroke-linejoin="miter">
	<path stroke="black" d="M135.20,253.56 M135.20,16.51  "></path>	<g transform="translate(131.62,261.25) rotate(90)" stroke="none" fill="black" font-family="DejaVu Sans" font-size="11.00" text-anchor="start">
		<text><tspan font-family="DejaVu Sans">GTX 1050Ti (mobile)</tspan></text>
	</g>
</g>
<g fill="none" color="black" stroke="currentColor" stroke-width="1.00" stroke-linecap="butt" stroke-linejoin="miter">
	<path stroke="black" d="M144.88,253.56 M144.88,16.51  "></path>	<g transform="translate(141.30,261.25) rotate(90)" stroke="none" fill="black" font-family="DejaVu Sans" font-size="11.00" text-anchor="start">
		<text><tspan font-family="DejaVu Sans">RTX 2050 (mobile)</tspan></text>
	</g>
</g>
<g fill="none" color="black" stroke="currentColor" stroke-width="1.00" stroke-linecap="butt" stroke-linejoin="miter">
	<path stroke="black" d="M154.57,253.56 M154.57,16.51  "></path>	<g transform="translate(150.99,261.25) rotate(90)" stroke="none" fill="black" font-family="DejaVu Sans" font-size="11.00" text-anchor="start">
		<text><tspan font-family="DejaVu Sans">GTX 1650 (mobile)</tspan></text>
	</g>
</g>
<g fill="none" color="black" stroke="currentColor" stroke-width="1.00" stroke-linecap="butt" stroke-linejoin="miter">
	<path stroke="black" d="M164.26,253.56 M164.26,16.51  "></path>	<g transform="translate(160.68,261.25) rotate(90)" stroke="none" fill="black" font-family="DejaVu Sans" font-size="11.00" text-anchor="start">
		<text><tspan font-family="DejaVu Sans">GTX 970</tspan></text>
	</g>
</g>
<g fill="none" color="black" stroke="currentColor" stroke-width="1.00" stroke-linecap="butt" stroke-linejoin="miter">
	<path stroke="black" d="M173.95,253.56 M173.95,16.51  "></path>	<g transform="translate(170.37,261.25) rotate(90)" stroke="none" fill="black" font-family="DejaVu Sans" font-size="11.00" text-anchor="start">
		<text><tspan font-family="DejaVu Sans">GTX 1060</tspan></text>
	</g>
</g>
<g fill="none" color="black" stroke="currentColor" stroke-width="1.00" stroke-linecap="butt" stroke-linejoin="miter">
	<path stroke="black" d="M183.63,253.56 M183.63,16.51  "></path>	<g transform="translate(180.05,261.25) rotate(90)" stroke="none" fill="black" font-family="DejaVu Sans" font-size="11.00" text-anchor="start">
		<text><tspan font-family="DejaVu Sans">GTX 1060 (mobile)</tspan></text>
	</g>
</g>
<g fill="none" color="black" stroke="currentColor" stroke-width="1.00" stroke-linecap="butt" stroke-linejoin="miter">
	<path stroke="black" d="M193.32,253.56 M193.32,16.51  "></path>	<g transform="translate(189.74,261.25) rotate(90)" stroke="none" fill="black" font-family="DejaVu Sans" font-size="11.00" text-anchor="start">
		<text><tspan font-family="DejaVu Sans">GTX 980</tspan></text>
	</g>
</g>
<g fill="none" color="black" stroke="currentColor" stroke-width="1.00" stroke-linecap="butt" stroke-linejoin="miter">
	<path stroke="black" d="M203.01,253.56 M203.01,16.51  "></path>	<g transform="translate(199.43,261.25) rotate(90)" stroke="none" fill="black" font-family="DejaVu Sans" font-size="11.00" text-anchor="start">
		<text><tspan font-family="DejaVu Sans">Quadro M5000</tspan></text>
	</g>
</g>
<g fill="none" color="black" stroke="currentColor" stroke-width="1.00" stroke-linecap="butt" stroke-linejoin="miter">
	<path stroke="black" d="M212.69,253.56 M212.69,16.51  "></path>	<g transform="translate(209.11,261.25) rotate(90)" stroke="none" fill="black" font-family="DejaVu Sans" font-size="11.00" text-anchor="start">
		<text><tspan font-family="DejaVu Sans">GTX 1660</tspan></text>
	</g>
</g>
<g fill="none" color="black" stroke="currentColor" stroke-width="1.00" stroke-linecap="butt" stroke-linejoin="miter">
	<path stroke="black" d="M222.38,253.56 M222.38,16.51  "></path>	<g transform="translate(218.80,261.25) rotate(90)" stroke="none" fill="black" font-family="DejaVu Sans" font-size="11.00" text-anchor="start">
		<text><tspan font-family="DejaVu Sans">GTX 1070</tspan></text>
	</g>
</g>
<g fill="none" color="black" stroke="currentColor" stroke-width="1.00" stroke-linecap="butt" stroke-linejoin="miter">
	<path stroke="black" d="M232.07,253.56 M232.07,16.51  "></path>	<g transform="translate(228.49,261.25) rotate(90)" stroke="none" fill="black" font-family="DejaVu Sans" font-size="11.00" text-anchor="start">
		<text><tspan font-family="DejaVu Sans">GTX 1080</tspan></text>
	</g>
</g>
<g fill="none" color="black" stroke="currentColor" stroke-width="1.00" stroke-linecap="butt" stroke-linejoin="miter">
	<path stroke="black" d="M241.75,253.56 M241.75,16.51  "></path>	<g transform="translate(238.17,261.25) rotate(90)" stroke="none" fill="black" font-family="DejaVu Sans" font-size="11.00" text-anchor="start">
		<text><tspan font-family="DejaVu Sans">Tesla T4</tspan></text>
	</g>
</g>
<g fill="none" color="black" stroke="currentColor" stroke-width="1.00" stroke-linecap="butt" stroke-linejoin="miter">
	<path stroke="black" d="M251.44,253.56 M251.44,16.51  "></path>	<g transform="translate(247.86,261.25) rotate(90)" stroke="none" fill="black" font-family="DejaVu Sans" font-size="11.00" text-anchor="start">
		<text><tspan font-family="DejaVu Sans">Tesla M40</tspan></text>
	</g>
</g>
<g fill="none" color="black" stroke="currentColor" stroke-width="1.00" stroke-linecap="butt" stroke-linejoin="miter">
	<path stroke="black" d="M261.13,253.56 M261.13,16.51  "></path>	<g transform="translate(257.55,261.25) rotate(90)" stroke="none" fill="black" font-family="DejaVu Sans" font-size="11.00" text-anchor="start">
		<text><tspan font-family="DejaVu Sans">GTX 980 Ti</tspan></text>
	</g>
</g>
<g fill="none" color="black" stroke="currentColor" stroke-width="1.00" stroke-linecap="butt" stroke-linejoin="miter">
	<path stroke="black" d="M270.81,253.56 M270.81,16.51  "></path>	<g transform="translate(267.23,261.25) rotate(90)" stroke="none" fill="black" font-family="DejaVu Sans" font-size="11.00" text-anchor="start">
		<text><tspan font-family="DejaVu Sans">RTX 2000 Ada</tspan></text>
	</g>
</g>
<g fill="none" color="black" stroke="currentColor" stroke-width="1.00" stroke-linecap="butt" stroke-linejoin="miter">
	<path stroke="black" d="M280.50,253.56 M280.50,16.51  "></path>	<g transform="translate(276.92,261.25) rotate(90)" stroke="none" fill="black" font-family="DejaVu Sans" font-size="11.00" text-anchor="start">
		<text><tspan font-family="DejaVu Sans">Quadro P5000</tspan></text>
	</g>
</g>
<g fill="none" color="black" stroke="currentColor" stroke-width="1.00" stroke-linecap="butt" stroke-linejoin="miter">
	<path stroke="black" d="M290.19,253.56 M290.19,16.51  "></path>	<g transform="translate(286.61,261.25) rotate(90)" stroke="none" fill="black" font-family="DejaVu Sans" font-size="11.00" text-anchor="start">
		<text><tspan font-family="DejaVu Sans">Tesla P40</tspan></text>
	</g>
</g>
<g fill="none" color="black" stroke="currentColor" stroke-width="1.00" stroke-linecap="butt" stroke-linejoin="miter">
	<path stroke="black" d="M299.87,253.56 M299.87,16.51  "></path>	<g transform="translate(296.29,261.25) rotate(90)" stroke="none" fill="black" font-family="DejaVu Sans" font-size="11.00" text-anchor="start">
		<text><tspan font-family="DejaVu Sans">GTX 1660 Ti</tspan></text>
	</g>
</g>
<g fill="none" color="black" stroke="currentColor" stroke-width="1.00" stroke-linecap="butt" stroke-linejoin="miter">
	<path stroke="black" d="M309.56,253.56 M309.56,16.51  "></path>	<g transform="translate(305.98,261.25) rotate(90)" stroke="none" fill="black" font-family="DejaVu Sans" font-size="11.00" text-anchor="start">
		<text><tspan font-family="DejaVu Sans">GTX TITAN X (Pascal)</tspan></text>
	</g>
</g>
<g fill="none" color="black" stroke="currentColor" stroke-width="1.00" stroke-linecap="butt" stroke-linejoin="miter">
	<path stroke="black" d="M319.25,253.56 M319.25,16.51  "></path>	<g transform="translate(315.67,261.25) rotate(90)" stroke="none" fill="black" font-family="DejaVu Sans" font-size="11.00" text-anchor="start">
		<text><tspan font-family="DejaVu Sans">GTX 1080 Ti</tspan></text>
	</g>
</g>
<g fill="none" color="black" stroke="currentColor" stroke-width="1.00" stroke-linecap="butt" stroke-linejoin="miter">
	<path stroke="black" d="M328.94,253.56 M328.94,16.51  "></path>	<g transform="translate(325.36,261.25) rotate(90)" stroke="none" fill="black" font-family="DejaVu Sans" font-size="11.00" text-anchor="start">
		<text><tspan font-family="DejaVu Sans">RTX 2060</tspan></text>
	</g>
</g>
<g fill="none" color="black" stroke="currentColor" stroke-width="1.00" stroke-linecap="butt" stroke-linejoin="miter">
	<path stroke="black" d="M338.62,253.56 M338.62,16.51  "></path>	<g transform="translate(335.04,261.25) rotate(90)" stroke="none" fill="black" font-family="DejaVu Sans" font-size="11.00" text-anchor="start">
		<text><tspan font-family="DejaVu Sans">RTX 2070</tspan></text>
	</g>
</g>
<g fill="none" color="black" stroke="currentColor" stroke-width="1.00" stroke-linecap="butt" stroke-linejoin="miter">
	<path stroke="black" d="M348.31,253.56 M348.31,16.51  "></path>	<g transform="translate(344.73,261.25) rotate(90)" stroke="none" fill="black" font-family="DejaVu Sans" font-size="11.00" text-anchor="start">
		<text><tspan font-family="DejaVu Sans">RTX 4060 Ti</tspan></text>
	</g>
</g>
<g fill="none" color="black" stroke="currentColor" stroke-width="1.00" stroke-linecap="butt" stroke-linejoin="miter">
	<path stroke="black" d="M358.00,253.56 M358.00,16.51  "></path>	<g transform="translate(354.42,261.25) rotate(90)" stroke="none" fill="black" font-family="DejaVu Sans" font-size="11.00" text-anchor="start">
		<text><tspan font-family="DejaVu Sans">RTX A4000 (ECC On)</tspan></text>
	</g>
</g>
<g fill="none" color="black" stroke="currentColor" stroke-width="1.00" stroke-linecap="butt" stroke-linejoin="miter">
	<path stroke="black" d="M367.68,253.56 M367.68,16.51  "></path>	<g transform="translate(364.10,261.25) rotate(90)" stroke="none" fill="black" font-family="DejaVu Sans" font-size="11.00" text-anchor="start">
		<text><tspan font-family="DejaVu Sans">GTX TITAN Xp</tspan></text>
	</g>
</g>
<g fill="none" color="black" stroke="currentColor" stroke-width="1.00" stroke-linecap="butt" stroke-linejoin="miter">
	<path stroke="black" d="M377.37,253.56 M377.37,16.51  "></path>	<g transform="translate(373.79,261.25) rotate(90)" stroke="none" fill="black" font-family="DejaVu Sans" font-size="11.00" text-anchor="start">
		<text><tspan font-family="DejaVu Sans">Tesla P100</tspan></text>
	</g>
</g>
<g fill="none" color="black" stroke="currentColor" stroke-width="1.00" stroke-linecap="butt" stroke-linejoin="miter">
	<path stroke="black" d="M387.06,253.56 M387.06,16.51  "></path>	<g transform="translate(383.48,261.25) rotate(90)" stroke="none" fill="black" font-family="DejaVu Sans" font-size="11.00" text-anchor="start">
		<text><tspan font-family="DejaVu Sans">RTX 2060 SUPER</tspan></text>
	</g>
</g>
<g fill="none" color="black" stroke="currentColor" stroke-width="1.00" stroke-linecap="butt" stroke-linejoin="miter">
	<path stroke="black" d="M396.74,253.56 M396.74,16.51  "></path>	<g transform="translate(393.16,261.25) rotate(90)" stroke="none" fill="black" font-family="DejaVu Sans" font-size="11.00" text-anchor="start">
		<text><tspan font-family="DejaVu Sans">RTX 2080</tspan></text>
	</g>
</g>
<g fill="none" color="black" stroke="currentColor" stroke-width="1.00" stroke-linecap="butt" stroke-linejoin="miter">
	<path stroke="black" d="M406.43,253.56 M406.43,16.51  "></path>	<g transform="translate(402.85,261.25) rotate(90)" stroke="none" fill="black" font-family="DejaVu Sans" font-size="11.00" text-anchor="start">
		<text><tspan font-family="DejaVu Sans">Tesla P100 SXM2</tspan></text>
	</g>
</g>
<g fill="none" color="black" stroke="currentColor" stroke-width="1.00" stroke-linecap="butt" stroke-linejoin="miter">
	<path stroke="black" d="M416.12,253.56 M416.12,16.51  "></path>	<g transform="translate(412.54,261.25) rotate(90)" stroke="none" fill="black" font-family="DejaVu Sans" font-size="11.00" text-anchor="start">
		<text><tspan font-family="DejaVu Sans">RTX 3080 (mobile)</tspan></text>
	</g>
</g>
<g fill="none" color="black" stroke="currentColor" stroke-width="1.00" stroke-linecap="butt" stroke-linejoin="miter">
	<path stroke="black" d="M425.80,253.56 M425.80,16.51  "></path>	<g transform="translate(422.22,261.25) rotate(90)" stroke="none" fill="black" font-family="DejaVu Sans" font-size="11.00" text-anchor="start">
		<text><tspan font-family="DejaVu Sans">RTX 2080 SUPER</tspan></text>
	</g>
</g>
<g fill="none" color="black" stroke="currentColor" stroke-width="1.00" stroke-linecap="butt" stroke-linejoin="miter">
	<path stroke="black" d="M435.49,253.56 M435.49,16.51  "></path>	<g transform="translate(431.91,261.25) rotate(90)" stroke="none" fill="black" font-family="DejaVu Sans" font-size="11.00" text-anchor="start">
		<text><tspan font-family="DejaVu Sans">RTX 2080 Ti</tspan></text>
	</g>
</g>
<g fill="none" color="black" stroke="currentColor" stroke-width="1.00" stroke-linecap="butt" stroke-linejoin="miter">
	<path stroke="black" d="M445.18,253.56 M445.18,16.51  "></path>	<g transform="translate(441.60,261.25) rotate(90)" stroke="none" fill="black" font-family="DejaVu Sans" font-size="11.00" text-anchor="start">
		<text><tspan font-family="DejaVu Sans">RTX 3060 Ti</tspan></text>
	</g>
</g>
<g fill="none" color="black" stroke="currentColor" stroke-width="1.00" stroke-linecap="butt" stroke-linejoin="miter">
	<path stroke="black" d="M454.87,253.56 M454.87,16.51  "></path>	<g transform="translate(451.29,261.25) rotate(90)" stroke="none" fill="black" font-family="DejaVu Sans" font-size="11.00" text-anchor="start">
		<text><tspan font-family="DejaVu Sans">TITAN V</tspan></text>
	</g>
</g>
<g fill="none" color="black" stroke="currentColor" stroke-width="1.00" stroke-linecap="butt" stroke-linejoin="miter">
	<path stroke="black" d="M464.55,253.56 M464.55,16.51  "></path>	<g transform="translate(460.97,261.25) rotate(90)" stroke="none" fill="black" font-family="DejaVu Sans" font-size="11.00" text-anchor="start">
		<text><tspan font-family="DejaVu Sans">RTX 4070</tspan></text>
	</g>
</g>
<g fill="none" color="black" stroke="currentColor" stroke-width="1.00" stroke-linecap="butt" stroke-linejoin="miter">
	<path stroke="black" d="M474.24,253.56 M474.24,16.51  "></path>	<g transform="translate(470.66,261.25) rotate(90)" stroke="none" fill="black" font-family="DejaVu Sans" font-size="11.00" text-anchor="start">
		<text><tspan font-family="DejaVu Sans">RTX 2080 Ti OC</tspan></text>
	</g>
</g>
<g fill="none" color="black" stroke="currentColor" stroke-width="1.00" stroke-linecap="butt" stroke-linejoin="miter">
	<path stroke="black" d="M483.93,253.56 M483.93,16.51  "></path>	<g transform="translate(480.35,261.25) rotate(90)" stroke="none" fill="black" font-family="DejaVu Sans" font-size="11.00" text-anchor="start">
		<text><tspan font-family="DejaVu Sans">TITAN RTX</tspan></text>
	</g>
</g>
<g fill="none" color="black" stroke="currentColor" stroke-width="1.00" stroke-linecap="butt" stroke-linejoin="miter">
	<path stroke="black" d="M493.61,253.56 M493.61,16.51  "></path>	<g transform="translate(490.03,261.25) rotate(90)" stroke="none" fill="black" font-family="DejaVu Sans" font-size="11.00" text-anchor="start">
		<text><tspan font-family="DejaVu Sans">RTX 3070 Ti Lite Hash Rate</tspan></text>
	</g>
</g>
<g fill="none" color="black" stroke="currentColor" stroke-width="1.00" stroke-linecap="butt" stroke-linejoin="miter">
	<path stroke="black" d="M503.30,253.56 M503.30,16.51  "></path>	<g transform="translate(499.72,261.25) rotate(90)" stroke="none" fill="black" font-family="DejaVu Sans" font-size="11.00" text-anchor="start">
		<text><tspan font-family="DejaVu Sans">RTX A6000 (ECC On)</tspan></text>
	</g>
</g>
<g fill="none" color="black" stroke="currentColor" stroke-width="1.00" stroke-linecap="butt" stroke-linejoin="miter">
	<path stroke="black" d="M512.99,253.56 M512.99,16.51  "></path>	<g transform="translate(509.41,261.25) rotate(90)" stroke="none" fill="black" font-family="DejaVu Sans" font-size="11.00" text-anchor="start">
		<text><tspan font-family="DejaVu Sans">V100-SXM2-32GB</tspan></text>
	</g>
</g>
<g fill="none" color="black" stroke="currentColor" stroke-width="1.00" stroke-linecap="butt" stroke-linejoin="miter">
	<path stroke="black" d="M522.67,253.56 M522.67,16.51  "></path>	<g transform="translate(519.09,261.25) rotate(90)" stroke="none" fill="black" font-family="DejaVu Sans" font-size="11.00" text-anchor="start">
		<text><tspan font-family="DejaVu Sans">RTX 3080</tspan></text>
	</g>
</g>
<g fill="none" color="black" stroke="currentColor" stroke-width="1.00" stroke-linecap="butt" stroke-linejoin="miter">
	<path stroke="black" d="M532.36,253.56 M532.36,16.51  "></path>	<g transform="translate(528.78,261.25) rotate(90)" stroke="none" fill="black" font-family="DejaVu Sans" font-size="11.00" text-anchor="start">
		<text><tspan font-family="DejaVu Sans">RTX A6000 (ECC Off)</tspan></text>
	</g>
</g>
<g fill="none" color="black" stroke="currentColor" stroke-width="1.00" stroke-linecap="butt" stroke-linejoin="miter">
	<path stroke="black" d="M542.05,253.56 M542.05,16.51  "></path>	<g transform="translate(538.47,261.25) rotate(90)" stroke="none" fill="black" font-family="DejaVu Sans" font-size="11.00" text-anchor="start">
		<text><tspan font-family="DejaVu Sans">RTX 3080 (12Gb)</tspan></text>
	</g>
</g>
<g fill="none" color="black" stroke="currentColor" stroke-width="1.00" stroke-linecap="butt" stroke-linejoin="miter">
	<path stroke="black" d="M551.73,253.56 M551.73,16.51  "></path>	<g transform="translate(548.15,261.25) rotate(90)" stroke="none" fill="black" font-family="DejaVu Sans" font-size="11.00" text-anchor="start">
		<text><tspan font-family="DejaVu Sans">RTX 3090</tspan></text>
	</g>
</g>
<g fill="none" color="black" stroke="currentColor" stroke-width="1.00" stroke-linecap="butt" stroke-linejoin="miter">
	<path stroke="black" d="M561.42,253.56 M561.42,16.51  "></path>	<g transform="translate(557.84,261.25) rotate(90)" stroke="none" fill="black" font-family="DejaVu Sans" font-size="11.00" text-anchor="start">
		<text><tspan font-family="DejaVu Sans">A100</tspan></text>
	</g>
</g>
<g fill="none" color="black" stroke="currentColor" stroke-width="1.00" stroke-linecap="butt" stroke-linejoin="miter">
	<path stroke="black" d="M571.11,253.56 M571.11,16.51  "></path>	<g transform="translate(567.53,261.25) rotate(90)" stroke="none" fill="black" font-family="DejaVu Sans" font-size="11.00" text-anchor="start">
		<text><tspan font-family="DejaVu Sans">RTX 4090</tspan></text>
	</g>
</g>
<g fill="none" color="black" stroke="currentColor" stroke-width="1.00" stroke-linecap="butt" stroke-linejoin="miter">
</g>
<g fill="none" color="black" stroke="currentColor" stroke-width="1.00" stroke-linecap="butt" stroke-linejoin="miter">
	<path stroke="black" d="M74.17,16.51 L74.17,253.56 L576.92,253.56 L576.92,16.51 L74.17,16.51 Z  "></path></g>
<g fill="none" color="black" stroke="currentColor" stroke-width="1.00" stroke-linecap="butt" stroke-linejoin="miter">
	<g transform="translate(17.58,135.04) rotate(270)" stroke="none" fill="black" font-family="DejaVu Sans" font-size="11.00" text-anchor="middle">
		<text><tspan font-family="DejaVu Sans">throughput (M cells/s)</tspan></text>
	</g>
</g>
<g fill="none" color="black" stroke="currentColor" stroke-width="1.00" stroke-linecap="butt" stroke-linejoin="miter">
</g>
	<g id="gnuplot_plot_1"><title> </title>
<g fill="none" color="black" stroke="currentColor" stroke-width="1.00" stroke-linecap="butt" stroke-linejoin="miter">
	<g stroke="none" shape-rendering="crispEdges">
		<polygon fill="rgb(148,   0, 211)" points="83.86,253.56 89.68,253.56 89.68,248.51 83.86,248.51 "></polygon>
		<polygon fill="rgb(148,   0, 211)" points="93.54,253.56 99.37,253.56 99.37,246.94 93.54,246.94 "></polygon>
		<polygon fill="rgb(148,   0, 211)" points="103.23,253.56 109.05,253.56 109.05,246.92 103.23,246.92 "></polygon>
		<polygon fill="rgb(148,   0, 211)" points="112.92,253.56 118.74,253.56 118.74,243.07 112.92,243.07 "></polygon>
		<polygon fill="rgb(148,   0, 211)" points="122.60,253.56 128.43,253.56 128.43,239.78 122.60,239.78 "></polygon>
		<polygon fill="rgb(148,   0, 211)" points="132.29,253.56 138.11,253.56 138.11,238.02 132.29,238.02 "></polygon>
		<polygon fill="rgb(148,   0, 211)" points="141.98,253.56 147.80,253.56 147.80,237.45 141.98,237.45 "></polygon>
		<polygon fill="rgb(148,   0, 211)" points="151.67,253.56 157.49,253.56 157.49,235.05 151.67,235.05 "></polygon>
		<polygon fill="rgb(148,   0, 211)" points="161.35,253.56 167.17,253.56 167.17,230.68 161.35,230.68 "></polygon>
		<polygon fill="rgb(148,   0, 211)" points="171.04,253.56 176.86,253.56 176.86,229.27 171.04,229.27 "></polygon>
		<polygon fill="rgb(148,   0, 211)" points="180.73,253.56 186.55,253.56 186.55,229.22 180.73,229.22 "></polygon>
		<polygon fill="rgb(148,   0, 211)" points="190.41,253.56 196.23,253.56 196.23,228.48 190.41,228.48 "></polygon>
		<polygon fill="rgb(148,   0, 211)" points="200.10,253.56 205.92,253.56 205.92,226.60 200.10,226.60 "></polygon>
		<polygon fill="rgb(148,   0, 211)" points="209.79,253.56 215.61,253.56 215.61,222.43 209.79,222.43 "></polygon>
		<polygon fill="rgb(148,   0, 211)" points="219.47,253.56 225.30,253.56 225.30,221.25 219.47,221.25 "></polygon>
		<polygon fill="rgb(148,   0, 211)" points="229.16,253.56 234.98,253.56 234.98,217.58 229.16,217.58 "></polygon>
		<polygon fill="rgb(148,   0, 211)" points="238.85,253.56 244.67,253.56 244.67,217.45 238.85,217.45 "></polygon>
		<polygon fill="rgb(148,   0, 211)" points="248.53,253.56 254.36,253.56 254.36,216.10 248.53,216.10 "></polygon>
		<polygon fill="rgb(148,   0, 211)" points="258.22,253.56 264.04,253.56 264.04,215.69 258.22,215.69 "></polygon>
		<polygon fill="rgb(148,   0, 211)" points="267.91,253.56 273.73,253.56 273.73,214.85 267.91,214.85 "></polygon>
		<polygon fill="rgb(148,   0, 211)" points="277.59,253.56 283.42,253.56 283.42,214.78 277.59,214.78 "></polygon>
		<polygon fill="rgb(148,   0, 211)" points="287.28,253.56 293.10,253.56 293.10,208.14 287.28,208.14 "></polygon>
		<polygon fill="rgb(148,   0, 211)" points="296.97,253.56 302.79,253.56 302.79,206.62 296.97,206.62 "></polygon>
		<polygon fill="rgb(148,   0, 211)" points="306.66,253.56 312.48,253.56 312.48,201.44 306.66,201.44 "></polygon>
		<polygon fill="rgb(148,   0, 211)" points="316.34,253.56 322.16,253.56 322.16,201.37 316.34,201.37 "></polygon>
		<polygon fill="rgb(148,   0, 211)" points="326.03,253.56 331.85,253.56 331.85,199.56 326.03,199.56 "></polygon>
		<polygon fill="rgb(148,   0, 211)" points="335.72,253.56 341.54,253.56 341.54,197.08 335.72,197.08 "></polygon>
		<polygon fill="rgb(148,   0, 211)" points="345.40,253.56 351.23,253.56 351.23,196.68 345.40,196.68 "></polygon>
		<polygon fill="rgb(148,   0, 211)" points="355.09,253.56 360.91,253.56 360.91,192.29 355.09,192.29 "></polygon>
		<polygon fill="rgb(148,   0, 211)" points="364.78,253.56 370.60,253.56 370.60,188.81 364.78,188.81 "></polygon>
		<polygon fill="rgb(148,   0, 211)" points="374.46,253.56 380.29,253.56 380.29,184.90 374.46,184.90 "></polygon>
		<polygon fill="rgb(148,   0, 211)" points="384.15,253.56 389.97,253.56 389.97,183.10 384.15,183.10 "></polygon>
		<polygon fill="rgb(148,   0, 211)" points="393.84,253.56 399.66,253.56 399.66,181.52 393.84,181.52 "></polygon>
		<polygon fill="rgb(148,   0, 211)" points="403.52,253.56 409.35,253.56 409.35,177.92 403.52,177.92 "></polygon>
		<polygon fill="rgb(148,   0, 211)" points="413.21,253.56 419.03,253.56 419.03,177.54 413.21,177.54 "></polygon>
		<polygon fill="rgb(148,   0, 211)" points="422.90,253.56 428.72,253.56 428.72,173.05 422.90,173.05 "></polygon>
		<polygon fill="rgb(148,   0, 211)" points="432.59,253.56 438.41,253.56 438.41,172.31 432.59,172.31 "></polygon>
		<polygon fill="rgb(148,   0, 211)" points="442.27,253.56 448.09,253.56 448.09,170.99 442.27,170.99 "></polygon>
		<polygon fill="rgb(148,   0, 211)" points="451.96,253.56 457.78,253.56 457.78,164.65 451.96,164.65 "></polygon>
		<polygon fill="rgb(148,   0, 211)" points="461.65,253.56 467.47,253.56 467.47,158.97 461.65,158.97 "></polygon>
		<polygon fill="rgb(148,   0, 211)" points="471.33,253.56 477.15,253.56 477.15,157.37 471.33,157.37 "></polygon>
		<polygon fill="rgb(148,   0, 211)" points="481.02,253.56 486.84,253.56 486.84,153.12 481.02,153.12 "></polygon>
		<polygon fill="rgb(148,   0, 211)" points="490.71,253.56 496.53,253.56 496.53,149.81 490.71,149.81 "></polygon>
		<polygon fill="rgb(148,   0, 211)" points="500.39,253.56 506.22,253.56 506.22,147.70 500.39,147.70 "></polygon>
		<polygon fill="rgb(148,   0, 211)" points="510.08,253.56 515.90,253.56 515.90,137.51 510.08,137.51 "></polygon>
		<polygon fill="rgb(148,   0, 211)" points="519.77,253.56 525.59,253.56 525.59,123.10 519.77,123.10 "></polygon>
		<polygon fill="rgb(148,   0, 211)" points="529.45,253.56 535.28,253.56 535.28,119.32 529.45,119.32 "></polygon>
		<polygon fill="rgb(148,   0, 211)" points="539.14,253.56 544.96,253.56 544.96,110.23 539.14,110.23 "></polygon>
		<polygon fill="rgb(148,   0, 211)" points="548.83,253.56 554.65,253.56 554.65,95.03 548.83,95.03 "></polygon>
		<polygon fill="rgb(148,   0, 211)" points="558.51,253.56 564.34,253.56 564.34,73.11 558.51,73.11 "></polygon>
		<polygon fill="rgb(148,   0, 211)" points="568.20,253.56 574.02,253.56 574.02,20.68 568.20,20.68 "></polygon>
	</g>
</g>
	</g>
	<g id="gnuplot_plot_2"><title>"oommf4M.txt" u (0):(4*$1**2 * $2 /$3/1e6):xtic("OOMMF (CPU)")</title>
<g fill="none" color="black" stroke="currentColor" stroke-width="1.00" stroke-linecap="butt" stroke-linejoin="miter">
	<g stroke="none" shape-rendering="crispEdges">
		<polygon fill="rgb(  0, 158, 115)" points="74.17,253.56 79.99,253.56 79.99,253.28 74.17,253.28 "></polygon>
	</g>
</g>
	</g>
<g fill="none" color="white" stroke="rgb(  0, 158, 115)" stroke-width="2.00" stroke-linecap="butt" stroke-linejoin="miter">
</g>
<g fill="none" color="black" stroke="currentColor" stroke-width="2.00" stroke-linecap="butt" stroke-linejoin="miter">
</g>
<g fill="none" color="black" stroke="black" stroke-width="1.00" stroke-linecap="butt" stroke-linejoin="miter">
</g>
<g fill="none" color="black" stroke="currentColor" stroke-width="1.00" stroke-linecap="butt" stroke-linejoin="miter">
	<path stroke="black" d="M74.17,16.51 L74.17,253.56 L576.92,253.56 L576.92,16.51 L74.17,16.51 Z  "></path></g>
<g fill="none" color="black" stroke="currentColor" stroke-width="1.00" stroke-linecap="butt" stroke-linejoin="miter">
</g>
</g>
</svg>

