<?xml version="1.0" encoding="utf-8"  standalone="no"?>

<svg width="650" height="470" viewBox="0 0 650 470" xmlns="http://www.w3.org/2000/svg" xlink="http://www.w3.org/1999/xlink">
<style type="text/css">
	polygon {
		transition: fill 0.3s linear;
	}
	polygon:hover {
		fill:rgb(37,0,53);
		transition: fill 0s;
	}
</style>

<title>Gnuplot</title>
<desc>Produced by GNUPLOT 5.4 patchlevel 2 </desc>

<g id="gnuplot_canvas">

<rect x="0" y="0" width="650" height="470" fill="none"></rect>
<defs>

	<circle id="gpDot" r="0.5" stroke-width="0.5" stroke="currentColor"></circle>
	<path id="gpPt0" stroke-width="0.242" stroke="currentColor" d="M-1,0 h2 M0,-1 v2"></path>
	<path id="gpPt1" stroke-width="0.242" stroke="currentColor" d="M-1,-1 L1,1 M1,-1 L-1,1"></path>
	<path id="gpPt2" stroke-width="0.242" stroke="currentColor" d="M-1,0 L1,0 M0,-1 L0,1 M-1,-1 L1,1 M-1,1 L1,-1"></path>
	<rect id="gpPt3" stroke-width="0.242" stroke="currentColor" x="-1" y="-1" width="2" height="2"></rect>
	<rect id="gpPt4" stroke-width="0.242" stroke="currentColor" fill="currentColor" x="-1" y="-1" width="2" height="2"></rect>
	<circle id="gpPt5" stroke-width="0.242" stroke="currentColor" cx="0" cy="0" r="1"></circle>
	<use href="#gpPt5" id="gpPt6" fill="currentColor" stroke="none"></use>
	<path id="gpPt7" stroke-width="0.242" stroke="currentColor" d="M0,-1.33 L-1.33,0.67 L1.33,0.67 z"></path>
	<use href="#gpPt7" id="gpPt8" fill="currentColor" stroke="none"></use>
	<use href="#gpPt7" id="gpPt9" stroke="currentColor" transform="rotate(180)"></use>
	<use href="#gpPt9" id="gpPt10" fill="currentColor" stroke="none"></use>
	<use href="#gpPt3" id="gpPt11" stroke="currentColor" transform="rotate(45)"></use>
	<use href="#gpPt11" id="gpPt12" fill="currentColor" stroke="none"></use>
	<path id="gpPt13" stroke-width="0.242" stroke="currentColor" d="M0,1.330 L1.265,0.411 L0.782,-1.067 L-0.782,-1.076 L-1.265,0.411 z"></path>
	<use href="#gpPt13" id="gpPt14" fill="currentColor" stroke="none"></use>
	<filter id="textbox" filterUnits="objectBoundingBox" x="0" y="0" height="1" width="1">
	  <feFlood flood-color="white" flood-opacity="1" result="bgnd"></feFlood>
	  <feComposite in="SourceGraphic" in2="bgnd" operator="atop"></feComposite>
	</filter>
	<filter id="greybox" filterUnits="objectBoundingBox" x="0" y="0" height="1" width="1">
	  <feFlood flood-color="lightgrey" flood-opacity="1" result="grey"></feFlood>
	  <feComposite in="SourceGraphic" in2="grey" operator="atop"></feComposite>
	</filter>
</defs>
<g fill="none" color="white" stroke="currentColor" stroke-width="1.00" stroke-linecap="butt" stroke-linejoin="miter">
</g>
<g fill="none" color="black" stroke="currentColor" stroke-width="1.00" stroke-linecap="butt" stroke-linejoin="miter">
	<path stroke="black" d="M74.17,253.68 L82.42,253.68 M626.92,253.68 L618.67,253.68  "></path>	<g transform="translate(66.48,257.26)" stroke="none" fill="black" font-family="DejaVu Sans" font-size="11.00" text-anchor="end">
		<text><tspan font-family="DejaVu Sans"> 0</tspan></text>
	</g>
</g>
<g fill="none" color="black" stroke="currentColor" stroke-width="1.00" stroke-linecap="butt" stroke-linejoin="miter">
	<path stroke="black" d="M74.17,229.96 L82.42,229.96 M626.92,229.96 L618.67,229.96  "></path>	<g transform="translate(66.48,233.54)" stroke="none" fill="black" font-family="DejaVu Sans" font-size="11.00" text-anchor="end">
		<text><tspan font-family="DejaVu Sans"> 200</tspan></text>
	</g>
</g>
<g fill="none" color="black" stroke="currentColor" stroke-width="1.00" stroke-linecap="butt" stroke-linejoin="miter">
	<path stroke="black" d="M74.17,206.24 L82.42,206.24 M626.92,206.24 L618.67,206.24  "></path>	<g transform="translate(66.48,209.82)" stroke="none" fill="black" font-family="DejaVu Sans" font-size="11.00" text-anchor="end">
		<text><tspan font-family="DejaVu Sans"> 400</tspan></text>
	</g>
</g>
<g fill="none" color="black" stroke="currentColor" stroke-width="1.00" stroke-linecap="butt" stroke-linejoin="miter">
	<path stroke="black" d="M74.17,182.53 L82.42,182.53 M626.92,182.53 L618.67,182.53  "></path>	<g transform="translate(66.48,186.11)" stroke="none" fill="black" font-family="DejaVu Sans" font-size="11.00" text-anchor="end">
		<text><tspan font-family="DejaVu Sans"> 600</tspan></text>
	</g>
</g>
<g fill="none" color="black" stroke="currentColor" stroke-width="1.00" stroke-linecap="butt" stroke-linejoin="miter">
	<path stroke="black" d="M74.17,158.81 L82.42,158.81 M626.92,158.81 L618.67,158.81  "></path>	<g transform="translate(66.48,162.39)" stroke="none" fill="black" font-family="DejaVu Sans" font-size="11.00" text-anchor="end">
		<text><tspan font-family="DejaVu Sans"> 800</tspan></text>
	</g>
</g>
<g fill="none" color="black" stroke="currentColor" stroke-width="1.00" stroke-linecap="butt" stroke-linejoin="miter">
	<path stroke="black" d="M74.17,135.09 L82.42,135.09 M626.92,135.09 L618.67,135.09  "></path>	<g transform="translate(66.48,138.67)" stroke="none" fill="black" font-family="DejaVu Sans" font-size="11.00" text-anchor="end">
		<text><tspan font-family="DejaVu Sans"> 1000</tspan></text>
	</g>
</g>
<g fill="none" color="black" stroke="currentColor" stroke-width="1.00" stroke-linecap="butt" stroke-linejoin="miter">
	<path stroke="black" d="M74.17,111.38 L82.42,111.38 M626.92,111.38 L618.67,111.38  "></path>	<g transform="translate(66.48,114.96)" stroke="none" fill="black" font-family="DejaVu Sans" font-size="11.00" text-anchor="end">
		<text><tspan font-family="DejaVu Sans"> 1200</tspan></text>
	</g>
</g>
<g fill="none" color="black" stroke="currentColor" stroke-width="1.00" stroke-linecap="butt" stroke-linejoin="miter">
	<path stroke="black" d="M74.17,87.66 L82.42,87.66 M626.92,87.66 L618.67,87.66  "></path>	<g transform="translate(66.48,91.24)" stroke="none" fill="black" font-family="DejaVu Sans" font-size="11.00" text-anchor="end">
		<text><tspan font-family="DejaVu Sans"> 1400</tspan></text>
	</g>
</g>
<g fill="none" color="black" stroke="currentColor" stroke-width="1.00" stroke-linecap="butt" stroke-linejoin="miter">
	<path stroke="black" d="M74.17,63.94 L82.42,63.94 M626.92,63.94 L618.67,63.94  "></path>	<g transform="translate(66.48,67.52)" stroke="none" fill="black" font-family="DejaVu Sans" font-size="11.00" text-anchor="end">
		<text><tspan font-family="DejaVu Sans"> 1600</tspan></text>
	</g>
</g>
<g fill="none" color="black" stroke="currentColor" stroke-width="1.00" stroke-linecap="butt" stroke-linejoin="miter">
	<path stroke="black" d="M74.17,40.23 L82.42,40.23 M626.92,40.23 L618.67,40.23  "></path>	<g transform="translate(66.48,43.81)" stroke="none" fill="black" font-family="DejaVu Sans" font-size="11.00" text-anchor="end">
		<text><tspan font-family="DejaVu Sans"> 1800</tspan></text>
	</g>
</g>
<g fill="none" color="black" stroke="currentColor" stroke-width="1.00" stroke-linecap="butt" stroke-linejoin="miter">
	<path stroke="black" d="M74.17,16.51 L82.42,16.51 M626.92,16.51 L618.67,16.51  "></path>	<g transform="translate(66.48,20.09)" stroke="none" fill="black" font-family="DejaVu Sans" font-size="11.00" text-anchor="end">
		<text><tspan font-family="DejaVu Sans"> 2000</tspan></text>
	</g>
</g>
<g fill="none" color="black" stroke="currentColor" stroke-width="1.00" stroke-linecap="butt" stroke-linejoin="miter">
	<path stroke="black" d="M76.99,253.56 M76.99,16.51  "></path>	<g transform="translate(73.41,261.25) rotate(90)" stroke="none" fill="black" font-family="DejaVu Sans" font-size="11.00" text-anchor="start">
		<text><tspan font-family="DejaVu Sans">OOMMF (CPU)</tspan></text>
	</g>
</g>
<g fill="none" color="black" stroke="currentColor" stroke-width="1.00" stroke-linecap="butt" stroke-linejoin="miter">
	<path stroke="black" d="M86.37,253.56 M86.37,16.51  "></path>	<g transform="translate(82.79,261.25) rotate(90)" stroke="none" fill="black" font-family="DejaVu Sans" font-size="11.00" text-anchor="start">
		<text><tspan font-family="DejaVu Sans">940MX</tspan></text>
	</g>
</g>
<g fill="none" color="black" stroke="currentColor" stroke-width="1.00" stroke-linecap="butt" stroke-linejoin="miter">
	<path stroke="black" d="M95.75,253.56 M95.75,16.51  "></path>	<g transform="translate(92.17,261.25) rotate(90)" stroke="none" fill="black" font-family="DejaVu Sans" font-size="11.00" text-anchor="start">
		<text><tspan font-family="DejaVu Sans">MX250</tspan></text>
	</g>
</g>
<g fill="none" color="black" stroke="currentColor" stroke-width="1.00" stroke-linecap="butt" stroke-linejoin="miter">
	<path stroke="black" d="M105.14,253.56 M105.14,16.51  "></path>	<g transform="translate(101.56,261.25) rotate(90)" stroke="none" fill="black" font-family="DejaVu Sans" font-size="11.00" text-anchor="start">
		<text><tspan font-family="DejaVu Sans">MX150</tspan></text>
	</g>
</g>
<g fill="none" color="black" stroke="currentColor" stroke-width="1.00" stroke-linecap="butt" stroke-linejoin="miter">
	<path stroke="black" d="M114.52,253.56 M114.52,16.51  "></path>	<g transform="translate(110.94,261.25) rotate(90)" stroke="none" fill="black" font-family="DejaVu Sans" font-size="11.00" text-anchor="start">
		<text><tspan font-family="DejaVu Sans">GTX 860M</tspan></text>
	</g>
</g>
<g fill="none" color="black" stroke="currentColor" stroke-width="1.00" stroke-linecap="butt" stroke-linejoin="miter">
	<path stroke="black" d="M123.91,253.56 M123.91,16.51  "></path>	<g transform="translate(120.33,261.25) rotate(90)" stroke="none" fill="black" font-family="DejaVu Sans" font-size="11.00" text-anchor="start">
		<text><tspan font-family="DejaVu Sans">GTX 1050 (mobile)</tspan></text>
	</g>
</g>
<g fill="none" color="black" stroke="currentColor" stroke-width="1.00" stroke-linecap="butt" stroke-linejoin="miter">
	<path stroke="black" d="M133.29,253.56 M133.29,16.51  "></path>	<g transform="translate(129.71,261.25) rotate(90)" stroke="none" fill="black" font-family="DejaVu Sans" font-size="11.00" text-anchor="start">
		<text><tspan font-family="DejaVu Sans">GTX 1050Ti (mobile)</tspan></text>
	</g>
</g>
<g fill="none" color="black" stroke="currentColor" stroke-width="1.00" stroke-linecap="butt" stroke-linejoin="miter">
	<path stroke="black" d="M142.68,253.56 M142.68,16.51  "></path>	<g transform="translate(139.10,261.25) rotate(90)" stroke="none" fill="black" font-family="DejaVu Sans" font-size="11.00" text-anchor="start">
		<text><tspan font-family="DejaVu Sans">RTX 2050 (mobile)</tspan></text>
	</g>
</g>
<g fill="none" color="black" stroke="currentColor" stroke-width="1.00" stroke-linecap="butt" stroke-linejoin="miter">
	<path stroke="black" d="M152.06,253.56 M152.06,16.51  "></path>	<g transform="translate(148.48,261.25) rotate(90)" stroke="none" fill="black" font-family="DejaVu Sans" font-size="11.00" text-anchor="start">
		<text><tspan font-family="DejaVu Sans">GTX 1650 (mobile)</tspan></text>
	</g>
</g>
<g fill="none" color="black" stroke="currentColor" stroke-width="1.00" stroke-linecap="butt" stroke-linejoin="miter">
	<path stroke="black" d="M161.45,253.56 M161.45,16.51  "></path>	<g transform="translate(157.87,261.25) rotate(90)" stroke="none" fill="black" font-family="DejaVu Sans" font-size="11.00" text-anchor="start">
		<text><tspan font-family="DejaVu Sans">GTX 970</tspan></text>
	</g>
</g>
<g fill="none" color="black" stroke="currentColor" stroke-width="1.00" stroke-linecap="butt" stroke-linejoin="miter">
	<path stroke="black" d="M170.83,253.56 M170.83,16.51  "></path>	<g transform="translate(167.25,261.25) rotate(90)" stroke="none" fill="black" font-family="DejaVu Sans" font-size="11.00" text-anchor="start">
		<text><tspan font-family="DejaVu Sans">GTX 1060</tspan></text>
	</g>
</g>
<g fill="none" color="black" stroke="currentColor" stroke-width="1.00" stroke-linecap="butt" stroke-linejoin="miter">
	<path stroke="black" d="M180.22,253.56 M180.22,16.51  "></path>	<g transform="translate(176.64,261.25) rotate(90)" stroke="none" fill="black" font-family="DejaVu Sans" font-size="11.00" text-anchor="start">
		<text><tspan font-family="DejaVu Sans">GTX 1060 (mobile)</tspan></text>
	</g>
</g>
<g fill="none" color="black" stroke="currentColor" stroke-width="1.00" stroke-linecap="butt" stroke-linejoin="miter">
	<path stroke="black" d="M189.60,253.56 M189.60,16.51  "></path>	<g transform="translate(186.02,261.25) rotate(90)" stroke="none" fill="black" font-family="DejaVu Sans" font-size="11.00" text-anchor="start">
		<text><tspan font-family="DejaVu Sans">GTX 980</tspan></text>
	</g>
</g>
<g fill="none" color="black" stroke="currentColor" stroke-width="1.00" stroke-linecap="butt" stroke-linejoin="miter">
	<path stroke="black" d="M198.98,253.56 M198.98,16.51  "></path>	<g transform="translate(195.40,261.25) rotate(90)" stroke="none" fill="black" font-family="DejaVu Sans" font-size="11.00" text-anchor="start">
		<text><tspan font-family="DejaVu Sans">Quadro M5000</tspan></text>
	</g>
</g>
<g fill="none" color="black" stroke="currentColor" stroke-width="1.00" stroke-linecap="butt" stroke-linejoin="miter">
	<path stroke="black" d="M208.37,253.56 M208.37,16.51  "></path>	<g transform="translate(204.79,261.25) rotate(90)" stroke="none" fill="black" font-family="DejaVu Sans" font-size="11.00" text-anchor="start">
		<text><tspan font-family="DejaVu Sans">GTX 1660</tspan></text>
	</g>
</g>
<g fill="none" color="black" stroke="currentColor" stroke-width="1.00" stroke-linecap="butt" stroke-linejoin="miter">
	<path stroke="black" d="M217.75,253.56 M217.75,16.51  "></path>	<g transform="translate(214.17,261.25) rotate(90)" stroke="none" fill="black" font-family="DejaVu Sans" font-size="11.00" text-anchor="start">
		<text><tspan font-family="DejaVu Sans">GTX 1070</tspan></text>
	</g>
</g>
<g fill="none" color="black" stroke="currentColor" stroke-width="1.00" stroke-linecap="butt" stroke-linejoin="miter">
	<path stroke="black" d="M227.14,253.56 M227.14,16.51  "></path>	<g transform="translate(223.56,261.25) rotate(90)" stroke="none" fill="black" font-family="DejaVu Sans" font-size="11.00" text-anchor="start">
		<text><tspan font-family="DejaVu Sans">RTX 4050 (mobile)</tspan></text>
	</g>
</g>
<g fill="none" color="black" stroke="currentColor" stroke-width="1.00" stroke-linecap="butt" stroke-linejoin="miter">
	<path stroke="black" d="M236.52,253.56 M236.52,16.51  "></path>	<g transform="translate(232.94,261.25) rotate(90)" stroke="none" fill="black" font-family="DejaVu Sans" font-size="11.00" text-anchor="start">
		<text><tspan font-family="DejaVu Sans">GTX 1080</tspan></text>
	</g>
</g>
<g fill="none" color="black" stroke="currentColor" stroke-width="1.00" stroke-linecap="butt" stroke-linejoin="miter">
	<path stroke="black" d="M245.91,253.56 M245.91,16.51  "></path>	<g transform="translate(242.33,261.25) rotate(90)" stroke="none" fill="black" font-family="DejaVu Sans" font-size="11.00" text-anchor="start">
		<text><tspan font-family="DejaVu Sans">Tesla T4</tspan></text>
	</g>
</g>
<g fill="none" color="black" stroke="currentColor" stroke-width="1.00" stroke-linecap="butt" stroke-linejoin="miter">
	<path stroke="black" d="M255.29,253.56 M255.29,16.51  "></path>	<g transform="translate(251.71,261.25) rotate(90)" stroke="none" fill="black" font-family="DejaVu Sans" font-size="11.00" text-anchor="start">
		<text><tspan font-family="DejaVu Sans">Tesla M40</tspan></text>
	</g>
</g>
<g fill="none" color="black" stroke="currentColor" stroke-width="1.00" stroke-linecap="butt" stroke-linejoin="miter">
	<path stroke="black" d="M264.68,253.56 M264.68,16.51  "></path>	<g transform="translate(261.10,261.25) rotate(90)" stroke="none" fill="black" font-family="DejaVu Sans" font-size="11.00" text-anchor="start">
		<text><tspan font-family="DejaVu Sans">GTX 980 Ti</tspan></text>
	</g>
</g>
<g fill="none" color="black" stroke="currentColor" stroke-width="1.00" stroke-linecap="butt" stroke-linejoin="miter">
	<path stroke="black" d="M274.06,253.56 M274.06,16.51  "></path>	<g transform="translate(270.48,261.25) rotate(90)" stroke="none" fill="black" font-family="DejaVu Sans" font-size="11.00" text-anchor="start">
		<text><tspan font-family="DejaVu Sans">RTX 2000 Ada</tspan></text>
	</g>
</g>
<g fill="none" color="black" stroke="currentColor" stroke-width="1.00" stroke-linecap="butt" stroke-linejoin="miter">
	<path stroke="black" d="M283.45,253.56 M283.45,16.51  "></path>	<g transform="translate(279.87,261.25) rotate(90)" stroke="none" fill="black" font-family="DejaVu Sans" font-size="11.00" text-anchor="start">
		<text><tspan font-family="DejaVu Sans">RTX 3050 Ti</tspan></text>
	</g>
</g>
<g fill="none" color="black" stroke="currentColor" stroke-width="1.00" stroke-linecap="butt" stroke-linejoin="miter">
	<path stroke="black" d="M292.83,253.56 M292.83,16.51  "></path>	<g transform="translate(289.25,261.25) rotate(90)" stroke="none" fill="black" font-family="DejaVu Sans" font-size="11.00" text-anchor="start">
		<text><tspan font-family="DejaVu Sans">Quadro P5000</tspan></text>
	</g>
</g>
<g fill="none" color="black" stroke="currentColor" stroke-width="1.00" stroke-linecap="butt" stroke-linejoin="miter">
	<path stroke="black" d="M302.21,253.56 M302.21,16.51  "></path>	<g transform="translate(298.63,261.25) rotate(90)" stroke="none" fill="black" font-family="DejaVu Sans" font-size="11.00" text-anchor="start">
		<text><tspan font-family="DejaVu Sans">Tesla P40</tspan></text>
	</g>
</g>
<g fill="none" color="black" stroke="currentColor" stroke-width="1.00" stroke-linecap="butt" stroke-linejoin="miter">
	<path stroke="black" d="M311.60,253.56 M311.60,16.51  "></path>	<g transform="translate(308.02,261.25) rotate(90)" stroke="none" fill="black" font-family="DejaVu Sans" font-size="11.00" text-anchor="start">
		<text><tspan font-family="DejaVu Sans">GTX 1660 Ti</tspan></text>
	</g>
</g>
<g fill="none" color="black" stroke="currentColor" stroke-width="1.00" stroke-linecap="butt" stroke-linejoin="miter">
	<path stroke="black" d="M320.98,253.56 M320.98,16.51  "></path>	<g transform="translate(317.40,261.25) rotate(90)" stroke="none" fill="black" font-family="DejaVu Sans" font-size="11.00" text-anchor="start">
		<text><tspan font-family="DejaVu Sans">GTX TITAN X (Pascal)</tspan></text>
	</g>
</g>
<g fill="none" color="black" stroke="currentColor" stroke-width="1.00" stroke-linecap="butt" stroke-linejoin="miter">
	<path stroke="black" d="M330.37,253.56 M330.37,16.51  "></path>	<g transform="translate(326.79,261.25) rotate(90)" stroke="none" fill="black" font-family="DejaVu Sans" font-size="11.00" text-anchor="start">
		<text><tspan font-family="DejaVu Sans">GTX 1080 Ti</tspan></text>
	</g>
</g>
<g fill="none" color="black" stroke="currentColor" stroke-width="1.00" stroke-linecap="butt" stroke-linejoin="miter">
	<path stroke="black" d="M339.75,253.56 M339.75,16.51  "></path>	<g transform="translate(336.17,261.25) rotate(90)" stroke="none" fill="black" font-family="DejaVu Sans" font-size="11.00" text-anchor="start">
		<text><tspan font-family="DejaVu Sans">RTX 2060</tspan></text>
	</g>
</g>
<g fill="none" color="black" stroke="currentColor" stroke-width="1.00" stroke-linecap="butt" stroke-linejoin="miter">
	<path stroke="black" d="M349.14,253.56 M349.14,16.51  "></path>	<g transform="translate(345.56,261.25) rotate(90)" stroke="none" fill="black" font-family="DejaVu Sans" font-size="11.00" text-anchor="start">
		<text><tspan font-family="DejaVu Sans">RTX 2070</tspan></text>
	</g>
</g>
<g fill="none" color="black" stroke="currentColor" stroke-width="1.00" stroke-linecap="butt" stroke-linejoin="miter">
	<path stroke="black" d="M358.52,253.56 M358.52,16.51  "></path>	<g transform="translate(354.94,261.25) rotate(90)" stroke="none" fill="black" font-family="DejaVu Sans" font-size="11.00" text-anchor="start">
		<text><tspan font-family="DejaVu Sans">RTX 4060 Ti</tspan></text>
	</g>
</g>
<g fill="none" color="black" stroke="currentColor" stroke-width="1.00" stroke-linecap="butt" stroke-linejoin="miter">
	<path stroke="black" d="M367.91,253.56 M367.91,16.51  "></path>	<g transform="translate(364.33,261.25) rotate(90)" stroke="none" fill="black" font-family="DejaVu Sans" font-size="11.00" text-anchor="start">
		<text><tspan font-family="DejaVu Sans">RTX A4000 (ECC On)</tspan></text>
	</g>
</g>
<g fill="none" color="black" stroke="currentColor" stroke-width="1.00" stroke-linecap="butt" stroke-linejoin="miter">
	<path stroke="black" d="M377.29,253.56 M377.29,16.51  "></path>	<g transform="translate(373.71,261.25) rotate(90)" stroke="none" fill="black" font-family="DejaVu Sans" font-size="11.00" text-anchor="start">
		<text><tspan font-family="DejaVu Sans">GTX TITAN Xp</tspan></text>
	</g>
</g>
<g fill="none" color="black" stroke="currentColor" stroke-width="1.00" stroke-linecap="butt" stroke-linejoin="miter">
	<path stroke="black" d="M386.68,253.56 M386.68,16.51  "></path>	<g transform="translate(383.10,261.25) rotate(90)" stroke="none" fill="black" font-family="DejaVu Sans" font-size="11.00" text-anchor="start">
		<text><tspan font-family="DejaVu Sans">Tesla P100</tspan></text>
	</g>
</g>
<g fill="none" color="black" stroke="currentColor" stroke-width="1.00" stroke-linecap="butt" stroke-linejoin="miter">
	<path stroke="black" d="M396.06,253.56 M396.06,16.51  "></path>	<g transform="translate(392.48,261.25) rotate(90)" stroke="none" fill="black" font-family="DejaVu Sans" font-size="11.00" text-anchor="start">
		<text><tspan font-family="DejaVu Sans">RTX 2060 SUPER</tspan></text>
	</g>
</g>
<g fill="none" color="black" stroke="currentColor" stroke-width="1.00" stroke-linecap="butt" stroke-linejoin="miter">
	<path stroke="black" d="M405.44,253.56 M405.44,16.51  "></path>	<g transform="translate(401.86,261.25) rotate(90)" stroke="none" fill="black" font-family="DejaVu Sans" font-size="11.00" text-anchor="start">
		<text><tspan font-family="DejaVu Sans">RTX 2080</tspan></text>
	</g>
</g>
<g fill="none" color="black" stroke="currentColor" stroke-width="1.00" stroke-linecap="butt" stroke-linejoin="miter">
	<path stroke="black" d="M414.83,253.56 M414.83,16.51  "></path>	<g transform="translate(411.25,261.25) rotate(90)" stroke="none" fill="black" font-family="DejaVu Sans" font-size="11.00" text-anchor="start">
		<text><tspan font-family="DejaVu Sans">Tesla P100 SXM2</tspan></text>
	</g>
</g>
<g fill="none" color="black" stroke="currentColor" stroke-width="1.00" stroke-linecap="butt" stroke-linejoin="miter">
	<path stroke="black" d="M424.21,253.56 M424.21,16.51  "></path>	<g transform="translate(420.63,261.25) rotate(90)" stroke="none" fill="black" font-family="DejaVu Sans" font-size="11.00" text-anchor="start">
		<text><tspan font-family="DejaVu Sans">RTX 3080 (mobile)</tspan></text>
	</g>
</g>
<g fill="none" color="black" stroke="currentColor" stroke-width="1.00" stroke-linecap="butt" stroke-linejoin="miter">
	<path stroke="black" d="M433.60,253.56 M433.60,16.51  "></path>	<g transform="translate(430.02,261.25) rotate(90)" stroke="none" fill="black" font-family="DejaVu Sans" font-size="11.00" text-anchor="start">
		<text><tspan font-family="DejaVu Sans">RTX 2080 SUPER</tspan></text>
	</g>
</g>
<g fill="none" color="black" stroke="currentColor" stroke-width="1.00" stroke-linecap="butt" stroke-linejoin="miter">
	<path stroke="black" d="M442.98,253.56 M442.98,16.51  "></path>	<g transform="translate(439.40,261.25) rotate(90)" stroke="none" fill="black" font-family="DejaVu Sans" font-size="11.00" text-anchor="start">
		<text><tspan font-family="DejaVu Sans">RTX 2080 Ti</tspan></text>
	</g>
</g>
<g fill="none" color="black" stroke="currentColor" stroke-width="1.00" stroke-linecap="butt" stroke-linejoin="miter">
	<path stroke="black" d="M452.37,253.56 M452.37,16.51  "></path>	<g transform="translate(448.79,261.25) rotate(90)" stroke="none" fill="black" font-family="DejaVu Sans" font-size="11.00" text-anchor="start">
		<text><tspan font-family="DejaVu Sans">RTX 3060 Ti</tspan></text>
	</g>
</g>
<g fill="none" color="black" stroke="currentColor" stroke-width="1.00" stroke-linecap="butt" stroke-linejoin="miter">
	<path stroke="black" d="M461.75,253.56 M461.75,16.51  "></path>	<g transform="translate(458.17,261.25) rotate(90)" stroke="none" fill="black" font-family="DejaVu Sans" font-size="11.00" text-anchor="start">
		<text><tspan font-family="DejaVu Sans">TITAN V</tspan></text>
	</g>
</g>
<g fill="none" color="black" stroke="currentColor" stroke-width="1.00" stroke-linecap="butt" stroke-linejoin="miter">
	<path stroke="black" d="M471.14,253.56 M471.14,16.51  "></path>	<g transform="translate(467.56,261.25) rotate(90)" stroke="none" fill="black" font-family="DejaVu Sans" font-size="11.00" text-anchor="start">
		<text><tspan font-family="DejaVu Sans">RTX 4070</tspan></text>
	</g>
</g>
<g fill="none" color="black" stroke="currentColor" stroke-width="1.00" stroke-linecap="butt" stroke-linejoin="miter">
	<path stroke="black" d="M480.52,253.56 M480.52,16.51  "></path>	<g transform="translate(476.94,261.25) rotate(90)" stroke="none" fill="black" font-family="DejaVu Sans" font-size="11.00" text-anchor="start">
		<text><tspan font-family="DejaVu Sans">RTX 2080 Ti OC</tspan></text>
	</g>
</g>
<g fill="none" color="black" stroke="currentColor" stroke-width="1.00" stroke-linecap="butt" stroke-linejoin="miter">
	<path stroke="black" d="M489.91,253.56 M489.91,16.51  "></path>	<g transform="translate(486.33,261.25) rotate(90)" stroke="none" fill="black" font-family="DejaVu Sans" font-size="11.00" text-anchor="start">
		<text><tspan font-family="DejaVu Sans">TITAN RTX</tspan></text>
	</g>
</g>
<g fill="none" color="black" stroke="currentColor" stroke-width="1.00" stroke-linecap="butt" stroke-linejoin="miter">
	<path stroke="black" d="M499.29,253.56 M499.29,16.51  "></path>	<g transform="translate(495.71,261.25) rotate(90)" stroke="none" fill="black" font-family="DejaVu Sans" font-size="11.00" text-anchor="start">
		<text><tspan font-family="DejaVu Sans">RTX 3070 Ti Lite Hash Rate</tspan></text>
	</g>
</g>
<g fill="none" color="black" stroke="currentColor" stroke-width="1.00" stroke-linecap="butt" stroke-linejoin="miter">
	<path stroke="black" d="M508.67,253.56 M508.67,16.51  "></path>	<g transform="translate(505.09,261.25) rotate(90)" stroke="none" fill="black" font-family="DejaVu Sans" font-size="11.00" text-anchor="start">
		<text><tspan font-family="DejaVu Sans">RTX A6000 (ECC On)</tspan></text>
	</g>
</g>
<g fill="none" color="black" stroke="currentColor" stroke-width="1.00" stroke-linecap="butt" stroke-linejoin="miter">
	<path stroke="black" d="M518.06,253.56 M518.06,16.51  "></path>	<g transform="translate(514.48,261.25) rotate(90)" stroke="none" fill="black" font-family="DejaVu Sans" font-size="11.00" text-anchor="start">
		<text><tspan font-family="DejaVu Sans">A40</tspan></text>
	</g>
</g>
<g fill="none" color="black" stroke="currentColor" stroke-width="1.00" stroke-linecap="butt" stroke-linejoin="miter">
	<path stroke="black" d="M527.44,253.56 M527.44,16.51  "></path>	<g transform="translate(523.86,261.25) rotate(90)" stroke="none" fill="black" font-family="DejaVu Sans" font-size="11.00" text-anchor="start">
		<text><tspan font-family="DejaVu Sans">V100-SXM2-32GB</tspan></text>
	</g>
</g>
<g fill="none" color="black" stroke="currentColor" stroke-width="1.00" stroke-linecap="butt" stroke-linejoin="miter">
	<path stroke="black" d="M536.83,253.56 M536.83,16.51  "></path>	<g transform="translate(533.25,261.25) rotate(90)" stroke="none" fill="black" font-family="DejaVu Sans" font-size="11.00" text-anchor="start">
		<text><tspan font-family="DejaVu Sans">RTX 3080</tspan></text>
	</g>
</g>
<g fill="none" color="black" stroke="currentColor" stroke-width="1.00" stroke-linecap="butt" stroke-linejoin="miter">
	<path stroke="black" d="M546.21,253.56 M546.21,16.51  "></path>	<g transform="translate(542.63,261.25) rotate(90)" stroke="none" fill="black" font-family="DejaVu Sans" font-size="11.00" text-anchor="start">
		<text><tspan font-family="DejaVu Sans">RTX A6000 (ECC Off)</tspan></text>
	</g>
</g>
<g fill="none" color="black" stroke="currentColor" stroke-width="1.00" stroke-linecap="butt" stroke-linejoin="miter">
	<path stroke="black" d="M555.60,253.56 M555.60,16.51  "></path>	<g transform="translate(552.02,261.25) rotate(90)" stroke="none" fill="black" font-family="DejaVu Sans" font-size="11.00" text-anchor="start">
		<text><tspan font-family="DejaVu Sans">RTX 3080 (12Gb)</tspan></text>
	</g>
</g>
<g fill="none" color="black" stroke="currentColor" stroke-width="1.00" stroke-linecap="butt" stroke-linejoin="miter">
	<path stroke="black" d="M564.98,253.56 M564.98,16.51  "></path>	<g transform="translate(561.40,261.25) rotate(90)" stroke="none" fill="black" font-family="DejaVu Sans" font-size="11.00" text-anchor="start">
		<text><tspan font-family="DejaVu Sans">RTX 5070 Ti</tspan></text>
	</g>
</g>
<g fill="none" color="black" stroke="currentColor" stroke-width="1.00" stroke-linecap="butt" stroke-linejoin="miter">
	<path stroke="black" d="M574.37,253.56 M574.37,16.51  "></path>	<g transform="translate(570.79,261.25) rotate(90)" stroke="none" fill="black" font-family="DejaVu Sans" font-size="11.00" text-anchor="start">
		<text><tspan font-family="DejaVu Sans">RTX 3090</tspan></text>
	</g>
</g>
<g fill="none" color="black" stroke="currentColor" stroke-width="1.00" stroke-linecap="butt" stroke-linejoin="miter">
	<path stroke="black" d="M583.75,253.56 M583.75,16.51  "></path>	<g transform="translate(580.17,261.25) rotate(90)" stroke="none" fill="black" font-family="DejaVu Sans" font-size="11.00" text-anchor="start">
		<text><tspan font-family="DejaVu Sans">RTX 5080</tspan></text>
	</g>
</g>
<g fill="none" color="black" stroke="currentColor" stroke-width="1.00" stroke-linecap="butt" stroke-linejoin="miter">
	<path stroke="black" d="M593.14,253.56 M593.14,16.51  "></path>	<g transform="translate(589.56,261.25) rotate(90)" stroke="none" fill="black" font-family="DejaVu Sans" font-size="11.00" text-anchor="start">
		<text><tspan font-family="DejaVu Sans">A100</tspan></text>
	</g>
</g>
<g fill="none" color="black" stroke="currentColor" stroke-width="1.00" stroke-linecap="butt" stroke-linejoin="miter">
	<path stroke="black" d="M602.52,253.56 M602.52,16.51  "></path>	<g transform="translate(598.94,261.25) rotate(90)" stroke="none" fill="black" font-family="DejaVu Sans" font-size="11.00" text-anchor="start">
		<text><tspan font-family="DejaVu Sans">RTX 4090</tspan></text>
	</g>
</g>
<g fill="none" color="black" stroke="currentColor" stroke-width="1.00" stroke-linecap="butt" stroke-linejoin="miter">
	<path stroke="black" d="M611.90,253.56 M611.90,16.51  "></path>	<g transform="translate(608.32,261.25) rotate(90)" stroke="none" fill="black" font-family="DejaVu Sans" font-size="11.00" text-anchor="start">
		<text><tspan font-family="DejaVu Sans">RTX 5090</tspan></text>
	</g>
</g>
<g fill="none" color="black" stroke="currentColor" stroke-width="1.00" stroke-linecap="butt" stroke-linejoin="miter">
	<path stroke="black" d="M621.29,253.56 M621.29,16.51  "></path>	<g transform="translate(617.71,261.25) rotate(90)" stroke="none" fill="black" font-family="DejaVu Sans" font-size="11.00" text-anchor="start">
		<text><tspan font-family="DejaVu Sans">H100</tspan></text>
	</g>
</g>
<g fill="none" color="black" stroke="currentColor" stroke-width="1.00" stroke-linecap="butt" stroke-linejoin="miter">
</g>
<g fill="none" color="black" stroke="currentColor" stroke-width="1.00" stroke-linecap="butt" stroke-linejoin="miter">
	<path stroke="black" d="M74.17,16.51 L74.17,253.56 L626.92,253.56 L626.92,16.51 L74.17,16.51 Z  "></path></g>
<g fill="none" color="black" stroke="currentColor" stroke-width="1.00" stroke-linecap="butt" stroke-linejoin="miter">
	<g transform="translate(17.58,135.04) rotate(270)" stroke="none" fill="black" font-family="DejaVu Sans" font-size="11.00" text-anchor="middle">
		<text><tspan font-family="DejaVu Sans">throughput (M cells/s)</tspan></text>
	</g>
</g>
<g fill="none" color="black" stroke="currentColor" stroke-width="1.00" stroke-linecap="butt" stroke-linejoin="miter">
</g>
	<g id="gnuplot_plot_1"><title> </title>
<g fill="none" color="black" stroke="currentColor" stroke-width="1.00" stroke-linecap="butt" stroke-linejoin="miter">
	<g stroke="none" shape-rendering="crispEdges">
		<polygon fill="rgb(148,   0, 211)" points="83.55,253.56 89.20,253.56 89.20,250.52 83.55,250.52 "></polygon>
		<polygon fill="rgb(148,   0, 211)" points="92.94,253.56 98.58,253.56 98.58,249.53 92.94,249.53 "></polygon>
		<polygon fill="rgb(148,   0, 211)" points="102.32,253.56 107.96,253.56 107.96,249.52 102.32,249.52 "></polygon>
		<polygon fill="rgb(148,   0, 211)" points="111.71,253.56 117.35,253.56 117.35,247.11 111.71,247.11 "></polygon>
		<polygon fill="rgb(148,   0, 211)" points="121.09,253.56 126.73,253.56 126.73,245.06 121.09,245.06 "></polygon>
		<polygon fill="rgb(148,   0, 211)" points="130.48,253.56 136.12,253.56 136.12,243.95 130.48,243.95 "></polygon>
		<polygon fill="rgb(148,   0, 211)" points="139.86,253.56 145.50,253.56 145.50,243.60 139.86,243.60 "></polygon>
		<polygon fill="rgb(148,   0, 211)" points="149.25,253.56 154.89,253.56 154.89,242.10 149.25,242.10 "></polygon>
		<polygon fill="rgb(148,   0, 211)" points="158.63,253.56 164.27,253.56 164.27,239.37 158.63,239.37 "></polygon>
		<polygon fill="rgb(148,   0, 211)" points="168.02,253.56 173.66,253.56 173.66,238.49 168.02,238.49 "></polygon>
		<polygon fill="rgb(148,   0, 211)" points="177.40,253.56 183.04,253.56 183.04,238.46 177.40,238.46 "></polygon>
		<polygon fill="rgb(148,   0, 211)" points="186.78,253.56 192.43,253.56 192.43,237.99 186.78,237.99 "></polygon>
		<polygon fill="rgb(148,   0, 211)" points="196.17,253.56 201.81,253.56 201.81,236.81 196.17,236.81 "></polygon>
		<polygon fill="rgb(148,   0, 211)" points="205.55,253.56 211.19,253.56 211.19,234.21 205.55,234.21 "></polygon>
		<polygon fill="rgb(148,   0, 211)" points="214.94,253.56 220.58,253.56 220.58,233.47 214.94,233.47 "></polygon>
		<polygon fill="rgb(148,   0, 211)" points="224.32,253.56 229.96,253.56 229.96,232.80 224.32,232.80 "></polygon>
		<polygon fill="rgb(148,   0, 211)" points="233.71,253.56 239.35,253.56 239.35,231.18 233.71,231.18 "></polygon>
		<polygon fill="rgb(148,   0, 211)" points="243.09,253.56 248.73,253.56 248.73,231.09 243.09,231.09 "></polygon>
		<polygon fill="rgb(148,   0, 211)" points="252.48,253.56 258.12,253.56 258.12,230.25 252.48,230.25 "></polygon>
		<polygon fill="rgb(148,   0, 211)" points="261.86,253.56 267.50,253.56 267.50,230.00 261.86,230.00 "></polygon>
		<polygon fill="rgb(148,   0, 211)" points="271.25,253.56 276.89,253.56 276.89,229.47 271.25,229.47 "></polygon>
		<polygon fill="rgb(148,   0, 211)" points="280.63,253.56 286.27,253.56 286.27,229.20 280.63,229.20 "></polygon>
		<polygon fill="rgb(148,   0, 211)" points="290.01,253.56 295.66,253.56 295.66,229.42 290.01,229.42 "></polygon>
		<polygon fill="rgb(148,   0, 211)" points="299.40,253.56 305.04,253.56 305.04,225.27 299.40,225.27 "></polygon>
		<polygon fill="rgb(148,   0, 211)" points="308.78,253.56 314.42,253.56 314.42,224.32 308.78,224.32 "></polygon>
		<polygon fill="rgb(148,   0, 211)" points="318.17,253.56 323.81,253.56 323.81,221.08 318.17,221.08 "></polygon>
		<polygon fill="rgb(148,   0, 211)" points="327.55,253.56 333.19,253.56 333.19,221.04 327.55,221.04 "></polygon>
		<polygon fill="rgb(148,   0, 211)" points="336.94,253.56 342.58,253.56 342.58,219.91 336.94,219.91 "></polygon>
		<polygon fill="rgb(148,   0, 211)" points="346.32,253.56 351.96,253.56 351.96,218.36 346.32,218.36 "></polygon>
		<polygon fill="rgb(148,   0, 211)" points="355.71,253.56 361.35,253.56 361.35,218.11 355.71,218.11 "></polygon>
		<polygon fill="rgb(148,   0, 211)" points="365.09,253.56 370.73,253.56 370.73,215.36 365.09,215.36 "></polygon>
		<polygon fill="rgb(148,   0, 211)" points="374.48,253.56 380.12,253.56 380.12,213.19 374.48,213.19 "></polygon>
		<polygon fill="rgb(148,   0, 211)" points="383.86,253.56 389.50,253.56 389.50,210.74 383.86,210.74 "></polygon>
		<polygon fill="rgb(148,   0, 211)" points="393.24,253.56 398.89,253.56 398.89,209.61 393.24,209.61 "></polygon>
		<polygon fill="rgb(148,   0, 211)" points="402.63,253.56 408.27,253.56 408.27,208.63 402.63,208.63 "></polygon>
		<polygon fill="rgb(148,   0, 211)" points="412.01,253.56 417.65,253.56 417.65,206.38 412.01,206.38 "></polygon>
		<polygon fill="rgb(148,   0, 211)" points="421.40,253.56 427.04,253.56 427.04,206.14 421.40,206.14 "></polygon>
		<polygon fill="rgb(148,   0, 211)" points="430.78,253.56 436.42,253.56 436.42,203.33 430.78,203.33 "></polygon>
		<polygon fill="rgb(148,   0, 211)" points="440.17,253.56 445.81,253.56 445.81,202.87 440.17,202.87 "></polygon>
		<polygon fill="rgb(148,   0, 211)" points="449.55,253.56 455.19,253.56 455.19,202.04 449.55,202.04 "></polygon>
		<polygon fill="rgb(148,   0, 211)" points="458.94,253.56 464.58,253.56 464.58,198.08 458.94,198.08 "></polygon>
		<polygon fill="rgb(148,   0, 211)" points="468.32,253.56 473.96,253.56 473.96,194.52 468.32,194.52 "></polygon>
		<polygon fill="rgb(148,   0, 211)" points="477.71,253.56 483.35,253.56 483.35,193.52 477.71,193.52 "></polygon>
		<polygon fill="rgb(148,   0, 211)" points="487.09,253.56 492.73,253.56 492.73,190.87 487.09,190.87 "></polygon>
		<polygon fill="rgb(148,   0, 211)" points="496.47,253.56 502.12,253.56 502.12,188.80 496.47,188.80 "></polygon>
		<polygon fill="rgb(148,   0, 211)" points="505.86,253.56 511.50,253.56 511.50,187.48 505.86,187.48 "></polygon>
		<polygon fill="rgb(148,   0, 211)" points="515.24,253.56 520.88,253.56 520.88,185.53 515.24,185.53 "></polygon>
		<polygon fill="rgb(148,   0, 211)" points="524.63,253.56 530.27,253.56 530.27,181.11 524.63,181.11 "></polygon>
		<polygon fill="rgb(148,   0, 211)" points="534.01,253.56 539.65,253.56 539.65,172.10 534.01,172.10 "></polygon>
		<polygon fill="rgb(148,   0, 211)" points="543.40,253.56 549.04,253.56 549.04,169.73 543.40,169.73 "></polygon>
		<polygon fill="rgb(148,   0, 211)" points="552.78,253.56 558.42,253.56 558.42,164.05 552.78,164.05 "></polygon>
		<polygon fill="rgb(148,   0, 211)" points="562.17,253.56 567.81,253.56 567.81,161.66 562.17,161.66 "></polygon>
		<polygon fill="rgb(148,   0, 211)" points="571.55,253.56 577.19,253.56 577.19,154.54 571.55,154.54 "></polygon>
		<polygon fill="rgb(148,   0, 211)" points="580.94,253.56 586.58,253.56 586.58,143.84 580.94,143.84 "></polygon>
		<polygon fill="rgb(148,   0, 211)" points="590.32,253.56 595.96,253.56 595.96,140.84 590.32,140.84 "></polygon>
		<polygon fill="rgb(148,   0, 211)" points="599.70,253.56 605.35,253.56 605.35,108.05 599.70,108.05 "></polygon>
		<polygon fill="rgb(148,   0, 211)" points="609.09,253.56 614.73,253.56 614.73,26.34 609.09,26.34 "></polygon>
		<polygon fill="rgb(148,   0, 211)" points="618.47,253.56 624.11,253.56 624.11,18.87 618.47,18.87 "></polygon>
	</g>
</g>
	</g>
	<g id="gnuplot_plot_2"><title>"oommf4M.txt" u (0):(4*$1**2 * $2 /$3/1e6):xtic("OOMMF (CPU)")</title>
<g fill="none" color="black" stroke="currentColor" stroke-width="1.00" stroke-linecap="butt" stroke-linejoin="miter">
	<g stroke="none" shape-rendering="crispEdges">
		<polygon fill="rgb(  0, 158, 115)" points="74.17,253.56 79.81,253.56 79.81,253.50 74.17,253.50 "></polygon>
	</g>
</g>
	</g>
<g fill="none" color="white" stroke="rgb(  0, 158, 115)" stroke-width="2.00" stroke-linecap="butt" stroke-linejoin="miter">
</g>
<g fill="none" color="black" stroke="currentColor" stroke-width="2.00" stroke-linecap="butt" stroke-linejoin="miter">
</g>
<g fill="none" color="black" stroke="black" stroke-width="1.00" stroke-linecap="butt" stroke-linejoin="miter">
</g>
<g fill="none" color="black" stroke="currentColor" stroke-width="1.00" stroke-linecap="butt" stroke-linejoin="miter">
	<path stroke="black" d="M74.17,16.51 L74.17,253.56 L626.92,253.56 L626.92,16.51 L74.17,16.51 Z  "></path></g>
<g fill="none" color="black" stroke="currentColor" stroke-width="1.00" stroke-linecap="butt" stroke-linejoin="miter">
</g>
</g>
</svg>
